<svg x="0px" y="0px" fill="none" viewBox="0 0 24 24" xmlns="http://www.w3.org/2000/svg">
<path d="M11.6464 5.35355L12 5.70711L12.3536 5.35355C13.2936 4.41346 14.8138 3.5 16.5 3.5C19.2316 3.5 21.5 5.74484 21.5 9C21.5 12.3066 19.7312 14.9341 17.5945 16.9487C15.7003 18.7347 13.5666 19.9937 12.2223 20.7868C12.1456 20.8321 12.0714 20.8759 12 20.9181C11.9286 20.8759 11.8544 20.8321 11.7777 20.7868C10.4334 19.9937 8.29969 18.7347 6.40551 16.9487C4.26881 14.9341 2.5 12.3066 2.5 9C2.5 5.74715 4.80427 3.5 7.5 3.5C9.18616 3.5 10.7064 4.41346 11.6464 5.35355Z" stroke="white"/>
</svg>
