<svg x='0px' y='0px' viewBox="0 0 24 24" fill="none" xmlns="http://www.w3.org/2000/svg">
<path fill-rule="evenodd" clip-rule="evenodd" d="M16.5491 7.27907C16.5491 9.64234 14.6333 11.5581 12.27 11.5581C9.90676 11.5581 7.99095 9.64234 7.99095 7.27907C7.99095 4.91581 9.90676 3 12.27 3C14.6333 3 16.5491 4.91581 16.5491 7.27907ZM17.5491 7.27907C17.5491 10.1946 15.1856 12.5581 12.27 12.5581C9.35447 12.5581 6.99095 10.1946 6.99095 7.27907C6.99095 4.36352 9.35447 2 12.27 2C15.1856 2 17.5491 4.36352 17.5491 7.27907ZM5.99974 15H5.67778L5.54456 15.2931L3.04456 20.7931L3.95492 21.2069L6.3217 16H17.7029L20.5608 21.2394L21.4387 20.7606L18.4387 15.2606L18.2966 15H17.9997H5.99974Z" fill="white"/>
</svg>
