<svg viewBox="0 0 232 96" fill="none" xmlns="http://www.w3.org/2000/svg">
<rect width="232" height="96" fill="none"/>
<path d="M68.0969 44.748L70.4431 49.9188H65.7342L68.0804 44.748H68.0969H68.0969ZM64.772 52.1651H71.4219L72.671 54.9334H75.4049L69.346 42.0667H66.8817L60.8229 54.9334H63.5229L64.772 52.1651ZM147.858 44.748L150.204 49.9188H145.494L147.84 44.748H147.858ZM144.533 52.1651H151.182L152.431 54.9334H155.166L149.106 42.0667H146.642L140.584 54.9334H143.284L144.533 52.1651ZM119.776 48.474C119.776 52.409 122.594 55.2123 126.712 55.2123C129.395 55.2123 130.847 54.1846 132.113 53.1058L130.712 51.2245C129.852 51.9041 128.636 52.844 126.763 52.844C124.164 52.844 122.408 51.0513 122.408 48.474C122.408 45.8976 124.147 44.1561 126.661 44.1561C128.349 44.1561 129.463 44.7131 130.391 45.5139L131.775 43.6163C130.476 42.5017 128.957 41.7878 126.661 41.7878C122.712 41.7878 119.776 44.574 119.776 48.474ZM168.769 43.5122C167.267 42.3976 165.883 41.7878 163.571 41.7878C159.554 41.7878 156.601 44.5391 156.601 48.474C156.601 52.4261 159.486 55.2123 163.571 55.2123C166.171 55.2123 167.959 54.3066 169.444 52.8968V47.9513H163.402V50.1456H167.081V51.8513C166.558 52.2871 165.478 52.8968 163.638 52.8968C161.023 52.8968 159.199 51.0513 159.199 48.474C159.199 45.8976 161.039 44.1383 163.571 44.1383C165.327 44.1383 166.474 44.7309 167.385 45.4098L168.769 43.5122ZM54.173 49.344C54.7806 49.344 55.203 49.4318 55.5569 49.7098C55.895 49.9716 56.1306 50.3895 56.1306 50.9635C56.1306 51.5383 55.895 51.9732 55.5569 52.235C55.203 52.5131 54.7806 52.583 54.173 52.583H49.2285V49.344H54.173ZM53.6836 44.4171C54.3929 44.4171 54.764 44.5561 55.017 44.8C55.2535 45.0618 55.3882 45.3927 55.3882 45.7578C55.3882 46.1236 55.2535 46.4545 55.017 46.7155C54.764 46.9586 54.3929 47.0984 53.6836 47.0984H49.2285V44.4171H53.6836ZM90.1051 54.9334H100.636V52.583H92.5694V49.344H98.6109V47.0984H92.5694V44.4171H100.299V42.0667H90.1051V54.9334ZM178.93 44.748L181.275 49.9188H176.566L178.912 44.748H178.93ZM175.605 52.1651H182.254L183.503 54.9334H186.237L180.178 42.0667H177.715L171.655 54.9334H174.356L175.605 52.1651ZM137.731 42.0667H135.266V54.9334H137.731V42.0667ZM86.6958 52.583H80.7213V42.0667H78.257V54.9334H86.6958V52.583ZM106.915 51.0334C106.915 48.3001 106.797 45.8976 106.797 45.8976H106.831C106.831 45.8976 107.978 47.5862 110.071 50.2497L113.751 54.9334H116.164V42.0667H113.7V46.0366C113.7 48.77 113.801 51.1903 113.801 51.1903H113.767C113.767 51.1903 112.619 49.5017 110.543 46.8196L106.865 42.0667H104.451V54.9334H106.915V51.0334ZM54.3416 54.9334C55.7594 54.9334 56.62 54.6204 57.2954 54.0806C58.1899 53.3667 58.747 52.2521 58.747 50.9115C58.747 49.0139 57.5318 48.0041 56.5191 47.7423V47.7082C57.4814 47.2553 58.0047 46.2277 58.0047 45.2179C58.0047 44.0692 57.5657 43.2683 56.8738 42.7635C56.1984 42.2756 55.2873 42.0667 53.7009 42.0667H46.7642V54.9334H54.3416Z" fill="#1C1C1B"/>
</svg>
