<svg xmlns="http://www.w3.org/2000/svg" viewBox="0 0 231 96"><g fill="#130400"><path d="M57.738 30.965c2.172-.027 4.348-.012 6.52-.012 1.441-.015 2.992.313 4.082 1.317 1.703 1.59 1.55 4.597-.145 6.136 1.145.426 2.207 1.235 2.68 2.39 1.27 2.884-.637 6.657-3.828 7.04-3.086.293-6.207.043-9.305.129a2055.12 2055.12 0 01-.004-17m3.371 3.183c.02 1.164.008 2.329.012 3.493 1.469-.121 3.012.203 4.426-.356 1.047-.531 1.176-2.105.148-2.73-1.379-.778-3.074-.246-4.586-.407m.004 6.563c.012 1.352.012 2.703.004 4.059 1.774-.141 3.602.187 5.348-.172 1.851-.368 1.777-3.465-.055-3.809-1.754-.176-3.535-.027-5.297-.078zm0 0M80.738 30.98c1.078-.05 2.16-.066 3.239.028 2.074 5.672 4.445 11.246 6.425 16.949-1.222-.004-2.445.047-3.664-.035-.418-1.016-.746-2.07-1.207-3.07-2.219.02-4.437-.012-6.656.02-.36 1.007-.754 2-1.164 2.987-1.207.133-2.461.215-3.652-.011 2.23-5.621 4.414-11.266 6.68-16.868m-.575 10.801a49.015 49.015 0 014.219 0c-.68-1.804-1.403-3.59-2.086-5.39-.79 1.765-1.41 3.597-2.133 5.39zm0 0M94.594 31.059c1.14-.168 2.36-.211 3.488.035.008 4.558-.02 9.117.016 13.672a128.73 128.73 0 016.14.004c.04 1.027.043 2.058 0 3.085-3.191.055-6.39.043-9.582.004-.086-5.597.031-11.203-.062-16.8zm0 0M108.508 30.945c1.527.051 3.062-.086 4.59.078 1.43 2.461 2.71 5.012 4.199 7.438 1.476-2.441 2.73-5.008 4.133-7.488 1.597-.04 3.195-.024 4.793-.008-.059 5.703.105 11.418-.082 17.11-1.211-.048-2.43.027-3.641-.048-.063-3.765.016-7.53-.04-11.297-1.366 2.438-2.612 4.95-4.007 7.372-.746-.04-1.496.03-2.238-.047-1.5-2.453-2.852-5-4.274-7.496-.004 3.824.036 7.648-.02 11.472a45.956 45.956 0 01-3.44.004c-.028-5.695-.079-11.394.027-17.09zm0 0M136.438 31.02c1.074-.141 2.164-.047 3.242-.055 2.172 5.629 4.382 11.242 6.504 16.894-1.211.196-2.47.141-3.688 0a72.753 72.753 0 01-1.164-2.988c-2.219-.031-4.441 0-6.66-.016-.465.997-.73 2.075-1.211 3.067-1.203.07-2.414.07-3.617-.004 2.082-5.672 4.457-11.242 6.594-16.898m-.461 10.726h4.093c-.617-1.766-1.277-3.539-2.05-5.242-.754 1.715-1.418 3.476-2.043 5.242zm0 0M149.922 31.07c1.14-.207 2.367-.183 3.512-.008-.051 5.606-.04 11.211-.004 16.817-1.157.129-2.352.16-3.504-.012.039-5.597.05-11.199-.004-16.797zm0 0M158.887 31.07c1.152-.242 2.367-.105 3.543-.082 2.925 3.555 5.78 7.18 8.601 10.825-.011-3.579-.047-7.16.016-10.739a40.986 40.986 0 013.25 0c.055 5.594.05 11.192.004 16.785-.953.043-1.906.032-2.86.02-3.039-3.828-6.09-7.649-9.09-11.504-.03 3.832-.038 7.664.004 11.496-1.136.16-2.324.152-3.464.004.039-5.602.05-11.207-.004-16.805zm0 0M132.816 56.438c2.055-.817 4.926.554 4.688 3.015-.649.031-1.3.035-1.953.043-.051-1.367-1.567-1.914-2.645-1.242-.27.363-.25.836.153 1.098 1.316.714 3.144.57 4.097 1.894.922 1.29.055 3.227-1.406 3.625-1.234.281-2.613.3-3.754-.316-.797-.59-1.371-1.7-1.11-2.696.59 0 1.177-.015 1.766-.03.18 1.386 1.856 2.062 2.875 1.081a6.523 6.523 0 00-.027-.73c-1.27-.871-3.11-.625-4.16-1.856-1.043-1.367-.207-3.558 1.476-3.886zm0 0M94.672 56.402c1.48-.011 2.98-.14 4.45.075 1.983.414 2.316 3.136 1.3 4.586-.992 1.117-2.637.824-3.969.894-.023.988.016 1.977-.039 2.961-.578.039-1.16.035-1.742-.004a294.41 294.41 0 010-8.512m1.926 1.715c.011.676.015 1.352-.004 2.028.648-.036 1.3.011 1.949-.032.723-.418.723-1.511-.008-1.914-.633-.172-1.293-.113-1.937-.082zm0 0M106.25 56.39c.52-.015 1.043-.023 1.563-.035 1.109 2.825 2.187 5.668 3.164 8.54a11.65 11.65 0 01-1.918.027c-.16-.422-.305-.856-.418-1.293a178.553 178.553 0 00-3.235-.004 9.781 9.781 0 01-.445 1.27c-.676.07-1.36.09-2.035-.008 1.125-2.825 2.152-5.688 3.324-8.496m-.137 5.457c.61-.004 1.219 0 1.828-.004-.246-.813-.574-1.594-.84-2.399-.417.762-.53 1.657-.988 2.403zm0 0M114.656 56.402c1.781.094 3.746-.433 5.383.461 1.406 1.23 1.293 4.047-.5 4.883.316 1.117 1.121 2.04 1.492 3.145-.687.086-1.383.066-2.07.027-.531-.98-.977-2.008-1.52-2.98-.285-.004-.566-.012-.843-.016-.016.996.011 1.996-.032 2.992-.636.047-1.273.043-1.91 0-.043-2.84-.039-5.676 0-8.512m1.926 1.715c.016.676.016 1.352-.004 2.024.848-.125 2.496.43 2.527-.907.067-1.336-1.613-1.203-2.523-1.117zm0 0M124.93 56.402c.578-.039 1.16-.043 1.738-.004.05 2.84.047 5.68 0 8.524a14.27 14.27 0 01-1.734-.008 281.03 281.03 0 01-.004-8.512zm0 0"/></g></svg>