<svg xmlns="http://www.w3.org/2000/svg" viewBox="0 0 231 96"><path d="M157.125 64.008c.063-.7 1.172-.18 1.684-.328 1.469 1.93 3.023 3.789 4.453 5.746-.024-1.688.047-3.371-.043-5.055-.027-.422-.531-.36-.832-.379.215-.719 1.527-.12 2.18-.348.156.56-.664.211-.61.723-.02 2.207-.027 4.414.008 6.621-.566.04-.875-.508-1.219-.86-1.367-1.714-2.758-3.413-4.086-5.155.172 1.855-.316 3.851.27 5.625.207.004.418.011.633.023-.266.531-1.973.492-2.266.02.258-.024.684-.024.672-.387.059-1.48.008-2.965.027-4.442-.023-.593.102-1.25-.273-1.765-.2-.012-.399-.028-.598-.04zm36.059-.344c.64-.031 1.285-.027 1.93-.008-.56 1.375-.122 2.95-.258 4.403.047.957-.16 1.964.242 2.875-.637-.02-1.266-.02-1.899-.004.008-.301.192-.426.543-.371.172-2.164.059-4.356.059-6.528-.375.07-.582-.05-.617-.367zm-8.469-.023c.977.003 1.953.011 2.926-.004-.016.09-.055.273-.07.367-.247.004-.485.012-.727.027-.074 2.035-.11 4.086.023 6.121.461.473 1.235.239 1.832.258.766-.023.715-1.164 1.375-1.215-.14.606-.394 1.176-.66 1.739-1.515.007-3.027-.024-4.543-.016-.023-.39.32-.344.594-.36.414-1.222.168-2.542.238-3.808-.062-.906.157-1.867-.203-2.723-.312-.043-.855.114-.785-.386zm-8.418.015c.977-.027 1.957 0 2.938-.02.144.657-.887.094-.836.735.113 1.984-.329 4.09.246 5.996.593.063 1.199.117 1.793.024.617-.215.71-.965 1.218-1.293-.074.636-.226 1.355-.675 1.828-1.485.043-2.973-.047-4.461.004v-.325l.535-.027c.527-1.973.125-4.152.219-6.2.03-.706-1.063-.026-.977-.722zm-8.504.028c1.656-.086 3.32.027 4.98-.024.047.563.208 1.117.172 1.692-.425-.278-.593-.79-.957-1.13-.675-.058-1.359-.046-2.039-.058.02.89-.004 1.781.016 2.676.762-.133 1.895.347 2.3-.547.087-.02.263-.063.348-.086a21.05 21.05 0 00-.02 2.164c-.558.04-.288-.809-.741-.953-.602-.188-1.235-.16-1.852-.176-.062.957-.094 1.938.016 2.895.562.539 1.465.238 2.176.25.68-.09.578-1.04 1.148-1.235.008.606-.016 1.215-.223 1.793-1.675.012-3.347-.054-5.023-.011l.004-.309c.281-.02.734-.043.738-.426.082-1.945.067-3.898.02-5.84-.024-.613-.91-.117-1.063-.675zm-16.441-.047c.722.015 1.449-.004 2.175.023-.062.309-.277.434-.628.379a182.432 182.432 0 00-.008 6.203c.011.399.511.356.797.356l-.008.297c-.828.062-1.66.007-2.488.023.09-.266.27-.383.546-.363.325-2.137.332-4.414.024-6.547l-.445-.016c.007-.086.023-.265.035-.355zm-7.805.062c1.262-.445 2.66-.187 3.918.156-.223.524.316 1.649-.363 1.762-.016-1.601-1.969-1.785-3.164-1.562-2.32 1.203-2.141 5.445.363 6.332.84.054 1.922.304 2.55-.422.231-.301.188-.778.587-.95.066.606-.274 1.149-.414 1.723-.954.407-2.043.301-3.047.18-1.473-.516-2.676-1.992-2.555-3.602-.145-1.504.816-2.949 2.125-3.617zm-13.176-.066c.77.02 1.543.011 2.313.011l-.059.368c-.133.004-.39.007-.52.011-.09 1.47-.042 2.942-.035 4.414-.015.895.524 1.848 1.43 2.079 1.195.39 2.465-.598 2.512-1.829.055-1.48.062-2.976 0-4.46-.07-.465-.906.066-.777-.57.71-.024 1.425-.005 2.14-.02.008.086.02.265.024.355-.125.004-.375.008-.504.012-.387 1.762.203 3.644-.38 5.379-.73 2.226-4.581 2.234-5.23-.059-.445-1.734.106-3.582-.343-5.312a31.72 31.72 0 00-.61-.016c.008-.09.031-.27.04-.363zm-8.508 6.308c-1.937-1.793-1.156-5.48 1.34-6.336 1.188-.265 2.489-.125 3.621.274a15.321 15.321 0 00-.004 1.64c-.093.024-.277.067-.367.09-.004-1.593-1.926-1.777-3.12-1.558-2.286 1.207-2.145 5.238.21 6.285 1.09.285 2.887.305 2.992-1.2l.32-.066c-.035.582-.355 1.09-.44 1.664-1.485.5-3.45.504-4.552-.793zm-14.921-5.914c-3.063.914-2.317 6.383.867 6.559 1.75.144 2.886-1.688 2.718-3.274.13-1.914-1.574-3.863-3.585-3.285zm-.208-.425c1.985-.594 4.524.66 4.762 2.835.512 2.204-1.332 4.72-3.68 4.575-1.632.183-3.238-.95-3.636-2.532-.7-1.957.535-4.347 2.554-4.878m-11.261.05c.969-.02 1.941.008 2.914-.02l.008.352c-.262.012-.52.035-.778.07-.129 1.458-.027 2.923-.058 4.383.043.645-.137 1.38.289 1.938.98.168 2.418.207 2.613-1.063.094-.035.281-.105.375-.136-.133.613-.312 1.226-.644 1.765-1.489.008-2.981-.062-4.473.004l-.012-.36h.52c.539-1.952.129-4.097.234-6.124.098-.785-1.043-.121-.988-.809zm-8.426-.015c.969.007 1.934.015 2.898-.004 0 .086-.004.265-.007.355-.258.008-.512.028-.766.047-.133 1.89-.05 3.8-.043 5.7-.012.921 1.14.683 1.746.687.8.023.93-.918 1.43-1.324.074.656-.309 1.254-.559 1.836-1.515.011-3.031-.032-4.547-.012-.03-.39.309-.348.586-.356.489-1.902.156-3.933.23-5.886.102-.567-.421-.797-.898-.676-.015-.094-.05-.274-.07-.367zm-8.617.004c1.629.015 3.258.043 4.886.02-.007.546.04 1.089.07 1.632-.445-.238-.566-.8-.976-1.098-.64-.015-1.281-.023-1.926-.039.032.899 0 1.793.024 2.692.605-.02 1.21-.012 1.816-.036.22-.253.41-.593.785-.617-.003.688 0 1.371-.003 2.059-.473-.004-.48-.57-.711-.863-.625-.028-1.243-.157-1.868-.168-.043.988-.054 1.98 0 2.968.563.442 1.38.192 2.051.211.766.008.621-1.164 1.297-1.21-.098.578-.2 1.156-.191 1.745-1.66.02-3.325-.03-4.985-.02-.328-.292.235-.41.477-.347.45-1.277.125-2.68.223-4.008-.086-.843.199-1.773-.204-2.554-.234-.004-.472-.004-.707-.004zm-10.676 0c.566.02 1.129.03 1.695.02 1.52 1.925 3.04 3.859 4.543 5.8-.07-1.809.059-3.633-.218-5.426-.29-.09-.88.16-.797-.379.714-.023 1.433-.004 2.156-.023l.035.363c-.117.004-.355.004-.473.004-.37 2.297-.03 4.7-.175 7.035-.407-.14-.73-.422-.989-.754-1.41-1.77-2.82-3.539-4.23-5.304.008 1.652-.05 3.308.031 4.96.008.524.402.758.89.672l-.019.32c-.742-.011-1.488-.027-2.23.012l-.024-.347.551-.016c.16-2.062.063-4.148.05-6.215.009-.582-.98-.094-.796-.722zm-10.707.02c.781-.032 1.562-.009 2.348-.024l.03.36c-.116 0-.35.007-.464.01-.25 1.759-.262 3.602.09 5.345.531 1.668 3.21 1.597 3.633-.102.293-1.707.355-3.563.02-5.246l-.587-.012c.004-.09.004-.265.008-.355.719.015 1.438-.004 2.156.023-.066.305-.273.434-.625.383-.199 1.766.207 3.586-.308 5.305-.727 2.242-4.54 2.285-5.25.011-.457-1.734-.043-3.547-.27-5.308-.281-.098-.863.129-.781-.39zm-8.613.437c.03 1.101-.04 2.207.035 3.308.844.078 2.101.223 2.308-.879.618-1.441-.906-2.918-2.343-2.43zm-2.114-.426c1.16-.055 2.325-.024 3.485-.02 1.027-.011 2.023.739 2.156 1.785.055.899-.633 1.63-1.32 2.122.875 1.363 1.953 3.164 3.82 3.054l.008.32c-.906-.09-1.969.22-2.723-.437-.789-.742-1.422-1.633-1.988-2.55-.442-.028-.89-.032-1.332-.04.156.95-.52 2.922 1.066 2.711l-.023.309c-.957-.004-1.918-.016-2.871.008l.004-.309c.285-.016.734-.04.738-.426.082-1.945.066-3.898.02-5.844-.008-.628-.954-.082-1.04-.683m-7.074 3.488c.059.992-.047 1.996.07 2.985.758.683 2.817.41 2.622-.958.09-1.406-1.418-2.304-2.692-2.027zm.035-3.125c-.043.887-.011 1.774-.023 2.664.613.008 1.226.02 1.836-.054.672-.594.644-1.766-.035-2.34-.512-.395-1.18-.27-1.778-.27m-1.363-.387c1.383.118 2.988-.379 4.156.582.528.383.465 1.075.387 1.641-.297.348-.613.684-1.027.895 1.308.488 2.062 2.171 1.101 3.328-1.168 1.324-3.097.695-4.633.82.582-1.43.18-3.035.301-4.539-.023-.926.117-1.875-.285-2.727m86.754-7.418c.758-.171-.164.75 0 0zm-19.125-.003c.762-.188-.184.75 0 0zm5.527-.172c.52-.32.004.691 0 0zm12.407-.63l.359-.019c.012.637.004 1.274.016 1.91l-.383-.039c.02-.617.015-1.234.008-1.851zm-1.899.555c.305-.62 1.508-.89 1.754-.195-.969-.683-1.879.492-1.133 1.305.364.031.73-.004 1.094-.051-.27.465-.879.223-1.313.242l-.386-.43c-.008-.289-.008-.582-.016-.87zm-1.742-.574c.48-.113.582.438.89.66.036-.125.098-.367.133-.492l.45-.062c-.79.562-.286 1.164-.016 1.84-.098-.024-.297-.079-.398-.106-.118-.238-.235-.48-.352-.719-.203.297-.254.793-.7.844.512-.629.59-1.344-.007-1.965zm-.727.11c.649-.344.286.707 0 0zm-1.02.16c.212-.117.645-.45.74-.059-.61.152-.528.805-.43 1.29.28.386.812.132 1.203.12-.16.524-.91.215-1.329.239-.437-.446-.492-1.055-.183-1.59zm-2.116.343a3.77 3.77 0 01.61-.613c.35.008.706.012 1.062.024l.007.39c-.875-.77-1.754.532-1.066 1.262.375.047.75.012 1.121-.043-.633.773-2.082.035-1.734-1.02zm-1.868.82c-.32-1.038.708-1.726 1.653-1.402l.004.383c-.918-.785-1.774.54-1.063 1.278a5.79 5.79 0 001.102-.059c-.27.465-.871.227-1.301.234-.133-.144-.262-.289-.395-.433zm-2.218-1.331c.601.05.539.855.965 1.176.312-.36.324-1.07.851-1.172.055.597.211 1.187.215 1.793l-.355.015a46.328 46.328 0 00-.094-1.058c-.375.16-.403.648-.598.968-.469-.16-.492-.746-.793-1.082-.035.387-.055.774-.058 1.16-.094-.011-.282-.03-.38-.046.208-.563.227-1.164.247-1.754zm-2.66.09c.003.507 0 1.011-.012 1.52.867.214 1.148-.599.965-1.313-.301-.141-.617-.23-.953-.207zm-.372-.176c.547.078 1.305-.207 1.665.36.421.503.02 1.155-.399 1.507-.426.012-.848.02-1.27.02.02-.63.02-1.258.004-1.887m-1.296.734c-.133.664.843-.18 0 0zm-.668 1.188c.23-.684.48-1.453.937-1.992.277.644.535 1.3.86 1.925-.438.172-.618-.21-.63-.593-.226-.004-.456-.004-.683-.004-.102.257-.113.691-.484.664m17.714-4.098c.813-.34-.042.863 0 0zm-19.062-.016c.762-.168-.168.743 0 0zm17.922-.824h.367c-.012.625-.02 1.25.016 1.875l-.39.016c.019-.63.015-1.262.007-1.89zm-2.27 1.895c.008-.633.008-1.27 0-1.903.375.008.746.016 1.121.032-.12.324-.523.125-.777.18-.004.148-.008.445-.012.597l.637-.047v.238a33.076 33.076 0 01-.621-.035l-.012.742c.235.067.7-.175.746.184-.363.008-.722.012-1.082.012zm-3.148-1.832c.406.23.46.754.71 1.11.579-.036.403-1.106 1.095-1.075.015.61.05 1.219.101 1.824-.098-.02-.293-.055-.39-.07.003-.348-.008-.7-.036-1.047-.437.203-.312.926-.847 1-.137-.363-.297-.727-.559-1.024-.172.356.168 1.09-.328 1.165.02-.633.066-1.274.254-1.883zm-5.629 1.812c.187-.601-.367-1.742.36-1.926.023.582.019 1.16.007 1.743.258-.004.52-.004.781-.004-.183.418-.78.12-1.148.187zm2.805-1.707c-.684.38-.493 1.754.41 1.559.933-.223.594-1.883-.41-1.559zm-.18-.172c.668-.144 1.621.145 1.492.992.031.887-.96 1.063-1.637.868-.136-.145-.273-.29-.41-.43-.12-.563.032-1.129.555-1.43m-5.5.512c-.008.441-.14 1.238.527 1.223.653.136 1.008-.73.703-1.22-.195-.53-.964-.401-1.23-.003zm.102-.504l1.027-.012c.207.188.406.391.582.61v.656c-.414.977-2.05.871-2.223-.219.09-.41.282-.777.614-1.035m-2.676.871c-.418-.765.949-1.355 1.02-.488-.153-.066-.458-.2-.61-.27-.332.555.281.715.676.891.008.156.02.465.027.621-.324.352-1.184.5-1.262-.129.313.02.555.297.895.184-.004-.168-.012-.332-.016-.496-.242-.102-.484-.211-.73-.313zm10.02-3.164c0 .266.003.531.003.8.856-.03 1.711-.015 2.567-.01-.09-.263-.176-.524-.262-.786-.77.016-1.54.02-2.309-.004zm-4.708.008c-.07.262-.129.523-.183.789a46.71 46.71 0 012.562.004 27.36 27.36 0 010-.8c-.793.023-1.586.015-2.379.007m6.043-.305c.285-.004.574 0 .867.004l-.117-.61c-.183 0-.543-.007-.726-.01-.008.206-.02.41-.024.616M117 49.21l-.016.622c.36-.012.72-.016 1.079-.004a35.95 35.95 0 01-.063-.644 10.72 10.72 0 01-1 .027m-3.379 0c-.004.156-.012.465-.012.621.356-.016.708-.016 1.067 0-.004-.156-.012-.465-.012-.621-.351.004-.699.004-1.043 0m-1.152.617c.289-.008.578-.008.871-.008a16.29 16.29 0 01-.023-.617c-.188.004-.567.012-.754.012-.036.207-.067.406-.094.613m2.672 1.082c.465-.012.933-.012 1.402.004-.125-.738.29-1.785-.41-2.285-1.344-.281-.93 1.488-.992 2.281m8.054-2.742c.008.219.012.437.024.656.453.274.926.535 1.445.66.04-.195.078-.39.121-.586-.527-.254-1.035-.55-1.59-.73m-5.773-.078v.797c.52-.012 1.043-.012 1.566-.008-.093-.262-.187-.524-.277-.785-.43.008-.86.008-1.289-.004m-1.309.02c.446.187.57.804 1.094.816-.015-.29.05-.606-.137-.852-.238.008-.718.028-.957.035m-1.656.805c.547.004.664-.68 1.184-.809a31.676 31.676 0 01-1.055-.027c-.144.254-.117.55-.129.836m-1.797-.035a54.459 54.459 0 011.598.008l-.024-.797c-.433.012-.863.012-1.292.004l-.282.785m-5.8.027c.07.192.14.387.214.582.625-.258 1.633-.433 1.407-1.332-.555.219-1.082.496-1.622.75m9.973-1.215c.531.32 1.195.106 1.781.149.168-.942-1.793-.977-1.78-.149m-1.712-.504v.665c.52-.055 1.121.16 1.574-.165 0-.855-1.054-.39-1.574-.5m-2.086.653c.574.023 1.157.004 1.735.027.05-.23.05-.465-.004-.695-.617.101-1.782-.332-1.73.668m4.394-1.617c0 .183-.008.546-.012.73.309-.012.621-.02.934-.023a2.26 2.26 0 00-.192-.711c-.183 0-.547.004-.73.004m-2.84.738c.824-.035 1.652-.04 2.48 0 .16-.223.27-.582-.035-.734-.812-.008-1.625.027-2.437-.02a.616.616 0 00-.008.754m-1.18-.031c.274.004.555.011.832.02 0-.243-.004-.485 0-.727h-.761c-.024.234-.051.472-.07.707m10.062.293c-.242.18-.078.609.234.496.684-.172 1.375-.59 1.653-1.274l-.36-.308c-.457.43-.992.761-1.527 1.086m-16.836-1.114c-.188.235-.121.535-.102.809.57.355 1.336 1.184 1.996.543-.632-.45-1.308-.836-1.894-1.352m10.265-.886c-.332.875.586.82 1.157.761a16.064 16.064 0 00-.149-.754c-.34.008-.676.008-1.008-.007m-1.789 0l.012.761c.61-.043 1.848.301 1.512-.757-.508.019-1.02.019-1.524-.004m-1.343.015c-.067.246-.13.492-.18.746.394-.004.793-.004 1.191.016.016-.258.036-.512.047-.77-.351.008-.707.012-1.058.008m-.348-.75l.016.258c1.601.012 3.207.004 4.808.004l-.008-.262a989.797 989.797 0 00-4.816 0m3.508-.75c-.309.535.652.028 0 0m-1.844-.004l-.008.266c.57-.05 1.207.148 1.727-.156-.555-.188-1.145-.09-1.719-.11m-.504.016c-.16.848.89-.211 0 0m7.848.066c.808.852 1.898 1.356 2.906 1.926.113-1.574-2.105-1.512-2.586-2.848-.27.227-.328.59-.32.922m-6.485-.71c.094.535.762.19 1.122.3a8.48 8.48 0 00.05-.441c-.37.078-.902-.164-1.172.14m-1.386-.132c.015.105.039.316.05.425.352-.097.997.235 1.106-.277-.176-.316-.8-.078-1.156-.148m-8.196 2.129c-.004.218-.011.437-.02.66 1.056-.614 2.192-1.153 3.044-2.043a7.42 7.42 0 01-.336-.793c-.707.965-1.914 1.3-2.688 2.176m8.22-2.86l.007.422a66.464 66.464 0 012.496.004l.016-.43c-.84.02-1.68.016-2.52.004m1.332-.902c-.226.847.692.527 1.176.594a17.3 17.3 0 010-.637c-.395.008-.785.012-1.176.043m-1.324-.035v.625c.383-.008.762-.012 1.148-.016 0-.152-.004-.453-.004-.602-.382 0-.765-.003-1.144-.007m2.27-.45c.101.38.753-.03.582-.289-.223-.082-.606-.007-.583.29m-1.734-.301c-.008.113-.02.343-.027.46.52-.015 1.043-.015 1.566-.007l-.062-.446c-.493.012-.985.012-1.477-.007m-1.027.015c.195.23.41.438.722.489v-.497l-.722.008m1.828-.914l.031.594a30.89 30.89 0 011.902.008c-.007-.215-.007-.43-.011-.64-.64.026-1.281-.005-1.922.038m-2.078-.031l-.008.625c.633-.2 2.16.492 1.898-.621-.632.004-1.261.008-1.89-.004m.008-1.922c-.02.535.007 1.07-.016 1.61 1.34-.012 2.68-.024 4.02.003-.067-.605.101-1.254-.137-1.832-.383.325-.242.828-.258 1.262h-1.211c.09-.586.074-1.394-.762-1.14.004.367.012.738.032 1.105-.375.039-.75.039-1.125.039.02-.418.171-1.488-.543-1.047m-6.852.531c2.516 3.61 4.102 7.793 4.828 12.121a315.41 315.41 0 001.516-5.066c-.465-.223-.192-.805-.262-1.207.363-.121.75-.078 1.129-.07-.016-.926-.004-1.852-.008-2.782-.246-.222-.488-.449-.73-.675-.016-1.11-.004-2.22-.004-3.325.441.008.883.008 1.324 0 .102.372-.258 1.067.223 1.207a17.88 17.88 0 000-1.21c.543.015 1.09.015 1.632 0-.007.382-.011.765-.015 1.148l.43-.02c-.008-.375-.016-.75-.02-1.125.379.004.758.004 1.14-.007a73.4 73.4 0 01.005 3.343l-.61.575c-.035.96.008 1.921-.031 2.882l.984-.046c.004.437.246 1.039-.191 1.332.453 1.734 1.066 3.433 1.457 5.183.469-1.59.664-3.254 1.195-4.828.985-3.102 2.606-5.973 4.508-8.602.148-.808-.719-.59-1.238-.601-5.98-.012-11.961.031-17.942-.02-.398.692.407 1.215.68 1.793m9.645-2.422c.203.649.726-.41 0 0m7.28-.156c.114.106.114.106 0 0m-11.558-1.597c-.156.476.078.937.188 1.398-.211.176-.418.352-.621.531.25-.047.496-.094.75-.136.48-.56.156-1.278.027-1.895-.086.023-.258.074-.344.102m6.078-.711c-.793.832.692 1.832-.398 2.566.46.008.926.012 1.387-.008.03-.558.535-.562.882-.836-.746-.441-1.222-1.18-1.87-1.722m-5.426.226c.117.785.464 1.559.187 2.352.898-.012 1.797-.012 2.695 0 .055-.102.168-.301.223-.403.39-.011.781-.046 1.14-.222-.175-.719-.644-1.344-.667-2.102-1.086.688-2.371.633-3.578.375m7.554-1.32c.047.71-.238 1.87.762 2.023-.008.551.09 1.14-.234 1.633.78.016 1.562.008 2.347.012-1.652-.531-1.867-2.477-2.875-3.668m-3.597.746c-.024 1.012.753 1.805.695 2.824.746-.578.031-1.402.16-2.12.266-.372.484-.782.27-1.24-.375.18-.75.36-1.125.536m3.96-.91c.098.125.098.125 0 0m-9.945-.184c.11.11.11.11 0 0m4.688-1.008c.074.653.511-.304 0 0m.191-.492c.106.117.106.117 0 0m-.617.028c-.32.488.703.035 0 0m.812-.403c.11.117.11.117 0 0m-.574 0c.11.11.11.11 0 0m.75-.375c.113.11.113.11 0 0m-.57 0c.117.11.117.11 0 0m-6.758-.285c.074.129.223.39.297.523a9.19 9.19 0 001.43.028c-.508-.352-1.207-.168-1.727-.551m7.516-.09c.117.11.117.11 0 0m-.719-.062c-.008.636.559-.266 0 0m.164-.465c.047.64.535-.3 0 0m.188-.414c.109.117.109.117 0 0m-5.688-.121l.262.527c-.32.031-.61-.039-.867-.219-.282.051-.582.094-.735.371.348.024.695.04 1.047.051.047.102.133.305.176.41.199.067.402.14.605.207.004.207.012.41.02.614.637-.13.582-.813.465-1.297.105.023.32.066.425.09.133.656-.062 1.394-.789 1.566.051.352.09.707.13 1.059.257-.66.816-1.079 1.456-1.325-.21-.527-.27-1.093-.445-1.632-.324-.18-.672-.313-1.008-.465-.242.05-.496.058-.742.043m-.691-.258c.101.125.101.125 0 0m1.523-.172c1.09.215 1.61 1.16 1.602 2.227.625-.485.308-1.422.757-2.016-.8.082-1.562-.219-2.359-.211m-1.121.012c.094.644.766-.504 0 0m-.156-1.282c-1.008 1.457-2.25 2.79-3.785 3.696.425 1.875.496 3.82.171 5.715 1.192-.036 2.38.011 3.57-.024a4.01 4.01 0 01.774-.605c.34-1.004.125-2.067-.137-3.063.235-.484.188-1.035.122-1.554-.301-.051-.57-.184-.82-.352-1.126.203-1.536-1.215-1.13-2.027.383-.559 1.016-.852 1.672-.934-.082-.27 0-1.023-.437-.852m3.601 1.145c-.683.766-.265 2.254-1.433 2.691-.891.149-1.27 1.079-1.254 1.891l-.344.32c.348.98.398 2.332-.504 3.059.379-.09.742-.246 1.113-.371.059-.457.149-.91.184-1.371.34-.367.656-.758.957-1.16.676.261 1.41.226 2.125.23 1.285.047 2.215-1.062 3.438-1.25.242 1.227 1.375 1.996 2.289 2.746-.036.395-.106 1.047-.664.875l.007.235c.27-.004.543-.004.82-.004.063-.446.173-.883.231-1.328-1.453-.579-.234-2.493-1.398-3.329.132-.058.394-.18.527-.238-1.004-.676-2.262-.34-3.39-.398-.063-.067-.184-.203-.247-.274-.105.274-.207.551-.27.836-.081.047-.245.133-.331.18-.149.234-.305.457-.461.683-.711-.132-1.137-.824-1.64-1.285.128.035.394.098.527.133-.051-.098-.149-.289-.196-.387.238.028.375-.074.406-.308.204.043.407.082.61.12.097-.046.289-.148.387-.194a15.971 15.971 0 00-.102-.415c.148.016.45.043.598.055a3.43 3.43 0 01-.57-.433c.124.02.378.054.503.07-.144-.25-.11-.543-.097-.82l.277-.223-.484-.293c.57-.07 1.359.262 1.53.852l.384.253c-.141.274-.22.563-.227.88.574-.235 1.14-.5 1.68-.81l.222-.75c.106-.034.309-.105.414-.14-.007-.121-.015-.367-.023-.488l.563-.27c-.016-.12-.047-.363-.06-.484a.808.808 0 00.333-.477c-2.023.328-4.05.871-5.91 1.754m-3.39-2.183c.046.57-.462.34-.794.265.192.442 1.52.453 1.696-.004l-.618.176c-.097-.144-.195-.289-.285-.437m3.34-.817c-1.219-.039-2.496.035-3.645-.418-.238.41-.511.809-.671 1.262.414-.031.687-.441 1.074-.48.422.289.875.55 1.398.335-.285.34-.597.704-.52 1.184-.37-.008-.738-.016-1.105 0 .922.285 1.942.36 2.907.348 2.12-.985 4.433-1.34 6.636-2.055.223.711-.676 1.14-.566 1.863-.305.149-.485.426-.594.739-.43.144-.277.648-.605.882-.543.579-1.457.602-1.97 1.196 1.317-.098 3.083-.324 3.872 1.023 1.488 1.16 1.406 3.79 3.578 4.09.07.188.145.379.219.566.27-.003.543 0 .82.004-.258-1.902-.25-3.824.176-5.703-2.02-1.254-3.582-3.148-4.68-5.238-2.043.598-4.219.367-6.324.402m-3.969-1.12c2.024.816 4.27.503 6.403.573 1.39-.03 2.855.02 4.144-.57 1.086 2.281 2.793 4.336 4.992 5.61-.394 2.394-.37 4.851-.058 7.253-1.02 1.664-2.172 3.29-3.016 5.07.375 1.196 1.793 1.524 2.598 2.352.586 1.192.328 3.063-1.16 3.457.535.461 1.261.696 1.773 1.219.024.121.07.36.09.48-.309.004-.621.004-.926-.003.047.52.3.984.36 1.5-.934-.88-2.098-1.426-3.083-2.207.012-.7-.222-1.551.317-2.106.469-.375.996-.672 1.5-.996-.875-.441-1.715-.973-2.438-1.64-.843 2.328-1.297 4.773-1.847 7.175-2.918-.02-5.836-.012-8.75-.004-.434-2.433-1.008-4.851-1.82-7.187-.692.699-1.563 1.187-2.422 1.652.59.422 1.285.719 1.75 1.29.078.605.328 1.25.003 1.827-.359.621-1.168.657-1.671 1.11-.446.386-.875.789-1.38 1.093.079-.527.329-1.007.477-1.515-.355.012-.703.02-1.054.02l.105-.47c.5-.538 1.27-.742 1.762-1.25-1.367-.386-1.547-1.855-1.39-3.058.67-1.195 2.468-1.355 2.835-2.758-.84-1.77-1.922-3.414-3.031-5.027.402-2.406.437-4.863-.051-7.262 2.207-1.266 3.95-3.328 4.988-5.629" stroke="#fff" stroke-width=".24999"/></svg>