<svg  viewBox="0 0 232 96" fill="none" xmlns="http://www.w3.org/2000/svg">
<rect width="232" height="96" fill="none"/>
<path fill-rule="evenodd" clip-rule="evenodd" d="M48.3279 41.5751H50.09H50.2313H52.7684C55.8714 41.5751 58.4794 44.4214 58.4794 48.0016C58.4794 51.5076 55.8707 54.3538 52.7684 54.428H50.2313H50.0197H48.3279V41.5751ZM50.2313 43.1078V52.8946H52.2755C55.0958 52.8204 56.505 50.4848 56.505 48.0724C56.505 45.5885 55.0951 43.5444 52.7684 43.1787L50.2313 43.1078ZM65.9526 41.2803C69.7601 41.2803 72.7902 44.275 72.7902 48.0009C72.7902 51.7235 69.7595 54.7188 65.9526 54.7188C62.216 54.7188 59.115 51.7242 59.115 48.0009C59.1143 44.2756 62.216 41.2803 65.9526 41.2803ZM65.9526 42.8879C68.7026 42.8879 70.9577 45.152 70.9577 48.0016C70.9577 50.7763 68.7026 53.0403 65.9526 53.0403C63.2742 53.0403 61.0171 50.7763 61.0171 48.0016C61.0171 45.152 63.2735 42.8879 65.9526 42.8879ZM73.3548 41.5751H75.1872V52.8953H78.7122V54.428H75.1872H74.342H73.3548V41.5751ZM84.6342 41.2094C86.044 41.2094 87.3842 41.646 88.5114 42.3772V44.7155C87.5939 43.5444 86.1847 42.8137 84.6342 42.8137C81.8842 42.8137 79.6987 45.152 79.6987 48.0016C79.6987 50.7763 81.8842 53.1119 84.6342 53.1119C86.1853 53.1119 87.5945 52.3839 88.5114 51.2135V53.6232C87.3835 54.3545 86.0434 54.7943 84.6342 54.7943C80.8976 54.7943 77.7966 51.7248 77.7966 48.0022C77.7966 44.2756 80.8982 41.2094 84.6342 41.2094ZM90.9788 52.8946H95.4206V54.4274H90.9788H89.0754V52.8946V48.3665V46.8305V43.0337V41.5751H90.9788H95.4206V43.0337H90.9788V46.8305H95.4206V48.3665H90.9788V52.8946ZM102.4 53.5517C102.189 53.7716 101.976 53.9173 101.694 54.0624C101.483 54.2081 101.201 54.2823 100.919 54.3532C100.848 54.3532 100.778 54.3532 100.708 54.4274C100.637 54.4274 100.566 54.4274 100.496 54.4274C100.284 54.4274 100.143 54.3532 99.9315 54.3532C99.7199 54.2823 99.5786 54.2074 99.3669 54.0624C99.2263 53.9167 99.0856 53.6967 98.9449 53.4768C98.874 53.2602 98.8036 53.0403 98.7333 52.8204V52.7462C98.7333 52.6753 98.7333 52.6753 98.7333 52.6753C98.7333 52.6012 98.7333 52.6012 98.7333 52.6012C98.7333 52.5303 98.7333 52.5303 98.7333 52.4554H98.8036C98.8036 52.3846 98.8036 52.3846 98.8036 52.3846C98.8036 52.3846 98.8036 52.3846 98.8036 52.3104C98.8733 51.9447 99.0153 51.6539 99.2966 51.3592C99.5779 51.1426 99.8599 50.9227 100.142 50.7028C100.002 50.4862 99.8599 50.2662 99.7192 50.0463C99.5779 49.9006 99.5076 49.6098 99.5076 49.3899V49.3157C99.5076 49.2448 99.5076 49.2448 99.5076 49.17C99.5076 49.0958 99.5076 49.0958 99.5076 49.0958C99.5779 49.0958 99.5779 49.0249 99.5779 49.0249C99.6489 48.7341 99.7902 48.5142 100.002 48.2937C100.283 48.1479 100.495 48.0737 100.777 48.0737C100.777 48.0737 100.777 48.0737 100.847 48.0737H100.917C100.917 48.0737 100.917 48.0737 100.988 48.0737C101.27 48.0737 101.623 48.2228 101.905 48.4394C102.116 48.6593 102.257 48.9501 102.257 49.3906C102.257 49.7562 102.187 50.047 101.975 50.2669C101.693 50.5577 101.482 50.7776 101.2 50.9233L102.54 52.6018C102.61 52.4561 102.751 52.311 102.892 52.0911C103.033 51.9454 103.103 51.8003 103.245 51.6546L103.668 52.0911C103.598 52.2368 103.456 52.3852 103.386 52.5309C103.316 52.6767 103.174 52.8217 103.033 52.9675C103.033 52.9675 103.033 52.9675 102.963 53.0416C102.963 53.0416 102.963 53.1125 102.892 53.1125L103.879 54.2836H103.033L102.4 53.5517ZM100.778 53.7716C100.99 53.7716 101.201 53.6974 101.412 53.5517C101.554 53.406 101.765 53.2609 101.907 53.1119C101.976 53.1119 101.976 53.1119 101.976 53.1119C101.976 53.1119 101.976 53.1119 102.047 53.041L100.497 51.2135C100.497 51.2876 100.497 51.2876 100.426 51.2876C100.355 51.3585 100.355 51.3585 100.355 51.3585C100.214 51.4327 100.144 51.5076 100.004 51.5784C99.8612 51.7242 99.7921 51.7983 99.7211 51.9441C99.6514 51.9441 99.6514 52.0183 99.6514 52.0898C99.5805 52.164 99.5805 52.2355 99.5805 52.3097C99.5101 52.3839 99.5101 52.4554 99.5101 52.4554C99.5101 52.5296 99.5101 52.6012 99.5101 52.6753C99.5101 52.9661 99.5805 53.186 99.7928 53.4775C100.074 53.6974 100.286 53.7716 100.638 53.7716H100.709C100.708 53.7716 100.708 53.7716 100.778 53.7716ZM100.214 49.2435C100.214 49.3144 100.214 49.3144 100.214 49.3144V49.3886C100.214 49.5343 100.214 49.6794 100.285 49.8251C100.355 49.9708 100.497 50.1192 100.566 50.1907C100.637 50.2649 100.637 50.2649 100.708 50.3365L100.778 50.4106H100.848C100.848 50.4106 100.919 50.4106 100.919 50.3365C101.06 50.2656 101.201 50.1907 101.343 50.0457C101.483 49.8999 101.554 49.7549 101.624 49.535C101.624 49.4608 101.624 49.4608 101.624 49.4608C101.624 49.3899 101.624 49.3899 101.624 49.3899C101.624 49.17 101.554 49.0243 101.412 48.8792C101.271 48.805 101.131 48.7335 100.99 48.7335C100.919 48.7335 100.919 48.7335 100.919 48.7335C100.919 48.7335 100.919 48.7335 100.848 48.7335C100.708 48.7335 100.566 48.7335 100.425 48.8792C100.285 48.9488 100.214 49.0945 100.214 49.2435ZM113.82 41.1353C116.288 41.1353 118.473 42.4514 119.742 44.3505L118.121 45.2268C117.205 43.7649 115.653 42.8137 113.891 42.8137C111.071 42.8137 108.885 45.152 108.885 48.0016C108.885 50.8478 111.071 53.1119 113.891 53.1119C116.217 53.1119 118.05 51.9441 118.192 49.4601H114.173V47.9274H118.05C118.05 47.9274 120.024 47.9274 120.166 47.9274C120.166 47.9274 120.166 43.9848 120.166 48.0016C120.166 52.0183 118.05 54.8645 113.821 54.8645C109.591 54.8645 106.912 51.7983 106.912 48.0016C106.912 44.2008 110.013 41.1353 113.82 41.1353ZM119.107 54.428L124.254 41.5751H125.453L130.598 54.428H128.625L127.215 50.7763H122.492L121.082 54.428H119.107ZM123.198 49.1687L124.888 44.5664L126.51 49.1687H123.198ZM148.646 54.428L153.722 41.5751H154.92L160.066 54.428H158.093L156.684 50.7763H151.959L150.549 54.428H148.646ZM152.665 49.1687L154.357 44.5664L156.049 49.1687H152.665ZM173.179 54.428L178.326 41.5751H179.525L184.672 54.428H182.697L181.217 50.7763H176.564L175.155 54.428H173.179ZM177.269 49.1687L178.891 44.5664L180.582 49.1687H177.269ZM135.04 43.0337C136.309 43.1794 136.731 43.6901 136.731 45.0069C136.731 46.2489 135.885 46.9053 134.828 46.9053H133.206V43.0337H135.04ZM135.182 48.4381H135.251C136.168 48.4381 137.79 48.658 137.79 50.7763C137.79 52.4548 136.38 52.8946 135.04 52.8946H135.321H133.206V48.4374H134.827H135.182V48.4381ZM132.785 54.428H133.206H135.957C138.143 54.428 139.765 52.8953 139.765 50.7763C139.765 49.0945 138.776 47.8558 137.367 47.3445C138.143 46.8305 138.566 45.8826 138.566 44.7148C138.566 42.8131 137.367 41.5744 135.464 41.5744C134.476 41.5002 133.419 41.5744 132.432 41.5744H132.361C132.361 41.5744 132.361 41.5744 132.291 41.5744H131.304V54.4274H132.785V54.428ZM144.487 43.0337C145.685 43.1794 146.109 43.6901 146.178 45.0069C146.178 46.2489 145.332 46.9053 144.275 46.9053H142.653V43.0337H144.487ZM144.558 48.4381C144.628 48.4381 144.628 48.4381 144.628 48.4381C145.545 48.4381 147.165 48.658 147.165 50.7763C147.165 52.4548 145.755 52.8946 144.416 52.8946H144.768H142.653V48.4374H144.275H144.558V48.4381ZM142.16 54.428H142.653H145.404C147.589 54.428 149.139 52.8953 149.139 50.7763C149.139 49.0945 148.153 47.8558 146.744 47.3445C147.589 46.8305 148.011 45.8826 148.011 44.7148C148.011 42.8131 146.744 41.5744 144.909 41.5744C143.852 41.5002 142.866 41.5744 141.807 41.5744C141.737 41.5744 141.737 41.5744 141.737 41.5744H141.667H140.68V54.4274H142.16V54.428ZM160.913 41.5751H162.112L170.783 51.0677V41.5751H172.475V54.428H171.206L162.675 45.0062V54.428H160.913V41.5751Z" fill="#1C1C1B"/>
</svg>
