<svg  viewBox="0 0 232 96" fill="none" xmlns="http://www.w3.org/2000/svg">
<rect width="232" height="96" fill="none"/>
<path d="M177.01 60.9008C176.884 60.8782 176.668 60.8532 176.365 60.8259C176.086 60.8259 175.782 60.8142 175.452 60.7908C175.122 60.7908 174.806 60.7795 174.502 60.7569H172.222C171.918 60.7795 171.614 60.8045 171.309 60.8318C171.031 60.8552 170.815 60.8805 170.664 60.9079L170.629 60.7558C170.882 60.6292 171.135 60.4642 171.388 60.2608C171.642 60.0582 171.781 59.6778 171.807 59.1198C171.83 58.5112 171.842 57.8772 171.842 57.2178C171.865 56.5585 171.877 55.8105 171.877 54.9738V52.1208V48.2798V44.4379V41.5479C171.877 40.7105 171.865 39.9749 171.842 39.3409C171.842 38.6815 171.83 38.0478 171.807 37.4398C171.783 36.8818 171.644 36.5015 171.389 36.2988C171.136 36.0702 170.883 35.8925 170.63 35.7658L170.664 35.6138C170.815 35.6645 171.031 35.7025 171.309 35.7278C171.614 35.7278 171.918 35.7395 172.221 35.7628C172.551 35.7862 172.868 35.7979 173.172 35.7979H174.502C174.806 35.7745 175.122 35.7628 175.451 35.7628C175.782 35.7395 176.086 35.7142 176.365 35.6868C176.668 35.6635 176.884 35.6382 177.01 35.6108L177.045 35.7638C176.767 35.8905 176.5 36.0679 176.247 36.2959C176.019 36.4985 175.892 36.8785 175.867 37.4359C175.844 38.0452 175.818 38.6795 175.791 39.3389V57.2159C175.814 57.8745 175.84 58.5082 175.867 59.1169C175.89 59.6749 176.016 60.0552 176.247 60.2578C176.5 60.4605 176.766 60.6255 177.045 60.7528L177.01 60.9008Z" fill="#1C1C1B"/>
<path d="M109.328 35.7979C109.075 35.9246 108.822 36.0896 108.569 36.2929C108.315 36.4956 108.175 36.8759 108.15 37.4339C108.127 38.0426 108.101 38.8159 108.074 39.7539C108.074 40.6672 108.063 41.7072 108.04 42.8739C108.04 44.0399 108.028 45.3076 108.005 46.6769V50.9369C107.982 52.5849 107.779 53.9922 107.396 55.1589C107.017 56.3256 106.51 57.3016 105.876 58.0869C105.268 58.8736 104.584 59.4949 103.824 59.9509C103.089 60.4076 102.354 60.7499 101.619 60.9779C100.91 61.2312 100.238 61.3836 99.6048 61.4349C98.9712 61.5109 98.4769 61.5489 98.1218 61.5489C96.6775 61.5489 95.2838 61.3589 93.9407 60.9789C92.5976 60.6236 91.4194 60.0402 90.4061 59.2289C89.3928 58.4169 88.5821 57.3646 87.9738 56.0719C87.3656 54.7786 87.0615 53.2062 87.0615 51.3549V47.0569V43.1009C87.0615 41.8842 87.0498 40.7942 87.0265 39.8309C87.0265 38.8416 87.0148 38.0426 86.9915 37.4339C86.9689 36.8759 86.8296 36.4959 86.5738 36.2939C86.3206 36.0906 86.0675 35.9252 85.8143 35.7979L85.8483 35.6079C85.9749 35.6312 86.1781 35.6566 86.4579 35.6839C86.7617 35.7072 87.0655 35.7326 87.3693 35.7599C87.699 35.7599 88.0155 35.7716 88.3186 35.7949H89.6876C89.9921 35.7716 90.3089 35.7599 90.638 35.7599C90.9678 35.7366 91.2719 35.7112 91.5503 35.6839C91.8541 35.6606 92.0693 35.6352 92.1959 35.6079L92.2309 35.7979C91.9524 35.9246 91.6863 36.0896 91.4324 36.2929C91.2046 36.4956 91.078 36.8759 91.0527 37.4339C91.0294 38.0426 91.0041 38.8412 90.9767 39.8299V51.3549C90.9767 54.1189 91.623 56.1602 92.9154 57.4789C94.2078 58.7976 96.1208 59.4569 98.6544 59.4569C99.3892 59.4569 100.225 59.3679 101.163 59.1899C102.101 58.9872 102.975 58.5816 103.786 57.9729C104.622 57.3642 105.319 56.5022 105.876 55.3869C106.459 54.2709 106.751 52.7876 106.751 50.9369C106.751 48.9336 106.739 47.2219 106.716 45.8019C106.716 44.3566 106.704 43.1266 106.681 42.1119C106.681 41.0719 106.669 40.1846 106.646 39.4499C106.623 38.7146 106.598 38.0426 106.57 37.4339C106.547 36.8759 106.408 36.4956 106.152 36.2929C105.899 36.0902 105.646 35.9252 105.393 35.7979L105.427 35.6079C105.706 35.6586 106.023 35.7096 106.377 35.7609C106.732 35.7836 107.062 35.7949 107.366 35.7949C107.644 35.7949 107.961 35.7836 108.316 35.7609C108.695 35.7102 109.025 35.6592 109.304 35.6079L109.328 35.7979Z" fill="#1C1C1B"/>
<path d="M165.554 42.759L165.326 42.835C164.44 40.9077 163.172 39.3733 161.525 38.232C159.903 37.0913 157.864 36.521 155.406 36.521C154.038 36.521 152.733 36.8127 151.491 37.396C150.249 37.9533 149.16 38.752 148.222 39.792C147.309 40.806 146.575 42.036 146.018 43.482C145.46 44.9267 145.181 46.524 145.181 48.274C145.181 50.0233 145.46 51.6207 146.018 53.066C146.575 54.5113 147.31 55.754 148.222 56.794C149.16 57.808 150.249 58.594 151.49 59.152C152.732 59.71 154.038 59.989 155.406 59.989C157.838 59.989 159.815 59.6087 161.335 58.848C162.881 58.0613 164.186 56.8693 165.25 55.272L165.478 55.348L165.402 57.782C164.819 58.3907 164.148 58.936 163.388 59.418C162.628 59.8747 161.805 60.268 160.917 60.598C160.056 60.9013 159.157 61.1293 158.219 61.282C157.281 61.4593 156.344 61.548 155.406 61.548C153.455 61.548 151.592 61.2313 149.819 60.598C148.045 59.9633 146.486 59.0757 145.143 57.935C143.8 56.7683 142.736 55.3737 141.951 53.751C141.165 52.103 140.772 50.2773 140.772 48.274C140.772 46.2707 141.165 44.4573 141.952 42.834C142.736 41.186 143.8 39.779 145.143 38.613C146.486 37.4463 148.045 36.5587 149.819 35.95C151.592 35.3167 153.455 35 155.405 35C156.343 35 157.281 35.0757 158.219 35.227C159.157 35.3797 160.056 35.6207 160.917 35.95C161.804 36.2547 162.627 36.648 163.388 37.13C164.148 37.586 164.819 38.1183 165.402 38.727L165.554 42.759Z" fill="#1C1C1B"/>
<path d="M136.907 42.759L136.679 42.835C135.792 40.9077 134.525 39.3733 132.878 38.232C131.256 37.0913 129.216 36.521 126.758 36.521C125.39 36.521 124.086 36.8127 122.844 37.396C121.602 37.9533 120.512 38.752 119.575 39.792C118.662 40.806 117.928 42.036 117.371 43.482C116.813 44.9267 116.534 46.524 116.534 48.274C116.534 50.0233 116.813 51.6207 117.371 53.066C117.928 54.5113 118.662 55.754 119.575 56.794C120.512 57.808 121.602 58.594 122.843 59.152C124.085 59.71 125.39 59.989 126.758 59.989C129.191 59.989 131.168 59.6087 132.688 58.848C134.234 58.0613 135.539 56.8693 136.603 55.272L136.831 55.348L136.755 57.782C136.172 58.3907 135.501 58.936 134.741 59.418C133.981 59.8747 133.158 60.268 132.27 60.598C131.409 60.9013 130.51 61.1293 129.572 61.282C128.634 61.4593 127.696 61.548 126.759 61.548C124.807 61.548 122.944 61.2313 121.171 60.598C119.398 59.9633 117.839 59.0757 116.496 57.935C115.153 56.7683 114.089 55.3737 113.303 53.751C112.517 52.103 112.124 50.2773 112.124 48.274C112.124 46.2707 112.517 44.4573 113.303 42.834C114.09 41.186 115.154 39.779 116.496 38.613C117.839 37.4463 119.398 36.5587 121.171 35.95C122.945 35.3167 124.808 35 126.759 35C127.696 35 128.634 35.0757 129.571 35.227C130.509 35.3797 131.409 35.6207 132.269 35.95C133.157 36.2547 133.98 36.648 134.741 37.13C135.501 37.586 136.172 38.1183 136.755 38.727L136.907 42.759Z" fill="#1C1C1B"/>
<path d="M81.7964 50.024C81.5179 50.1507 81.2521 50.3153 80.9989 50.518C80.7458 50.7207 80.6192 50.9997 80.6192 51.355V56.034C79.4021 57.7833 77.8431 59.14 75.9425 60.104C74.0424 61.0673 71.9396 61.549 69.6338 61.549C67.6825 61.549 65.8198 61.232 64.0457 60.598C62.2723 59.964 60.714 59.0763 59.371 57.935C58.0279 56.7683 56.9636 55.374 56.1782 53.752C55.3927 52.1033 55 50.2773 55 48.274C55 46.2713 55.3931 44.4583 56.1792 42.835C56.964 41.187 58.0279 39.7797 59.371 38.613C60.714 37.4463 62.2723 36.559 64.0457 35.951C65.8198 35.317 67.6825 35 69.6338 35C70.5712 35 71.5085 35.076 72.4459 35.228C73.3839 35.38 74.2833 35.621 75.144 35.951C76.0314 36.255 76.8552 36.648 77.6153 37.13C78.3754 37.5867 79.047 38.119 79.6299 38.727L79.7828 42.759L79.5539 42.835C78.6679 40.9083 77.4011 39.3743 75.7536 38.233C74.1314 37.0917 72.0915 36.521 69.6338 36.521C68.2655 36.521 66.9604 36.8127 65.7186 37.396C64.4774 37.954 63.3882 38.7527 62.4508 39.792C61.5381 40.8067 60.803 42.0367 60.2454 43.482C59.6877 44.9273 59.4089 46.5247 59.4089 48.274C59.4089 49.998 59.6754 51.5827 60.2084 53.028C60.7653 54.474 61.4998 55.7167 62.4119 56.756C63.3499 57.77 64.4394 58.5687 65.6806 59.152C66.9224 59.71 68.2401 59.989 69.6338 59.989C72.2693 59.989 74.5244 59.482 76.3991 58.468V51.355C76.3991 51.0003 76.2599 50.7213 75.9814 50.518C75.7283 50.3153 75.4751 50.1503 75.222 50.023L75.2559 49.833C75.3825 49.8563 75.6107 49.8817 75.9405 49.909C76.2702 49.9323 76.6123 49.9577 76.9667 49.985H80.2355C80.5399 49.9617 80.8314 49.9363 81.1099 49.909C81.3883 49.8857 81.6035 49.8603 81.7554 49.833L81.7964 50.024Z" fill="#1C1C1B"/>
</svg>
