<svg viewBox="0 0 231 96" fill="none" xmlns="http://www.w3.org/2000/svg">
<rect width="231" height="96" fill="none"/>
<path d="M54.3133 39.1082H55.2257V52.0649C55.2257 55.1943 53.1245 56.0745 52.0167 56.0907C50.9906 56.0745 48.987 55.2756 48.8078 52.456L48.7916 52.243L47 52.5229L47.0328 52.7185C47.1346 53.5015 47.3954 54.2555 47.7991 54.9339C48.2737 55.6121 48.9044 56.166 49.6379 56.549C50.3714 56.932 51.1862 57.1327 52.0136 57.1343C52.8409 57.1359 53.6565 56.9383 54.3915 56.5581C55.1264 56.178 55.7592 55.6265 56.2364 54.9501C57.0509 53.6788 57.116 52.1808 57.116 50.4842V39.141H57.9292V38.2607H54.3133V39.1082Z" fill="#1C1C1B"/>
<path d="M141.454 39.1248H142.284V38.2607H138.668V39.1248H139.562V43.1996H134.138V39.1248H134.953V38.2607H131.355V39.1248H132.267V56.011H131.355V56.875H134.939V56.011H134.14V44.2255H139.565V56.0102H138.67V56.8742H142.286V56.011H141.456L141.454 39.1248Z" fill="#1C1C1B"/>
<path d="M104.953 39.1248H105.8L102.738 46.8508L98.878 39.1248H99.6925V38.2607H96.0437V39.1248H96.8905L101.386 48.3156V56.011H100.23V56.875H104.595V56.011H103.292V48.3501L106.973 39.1248H107.787V38.2607H104.953V39.1248Z" fill="#1C1C1B"/>
<path d="M87.9314 48.008L83.7615 38.2607H81.5791V39.1248H82.4911V56.011H81.5791V56.875H84.4785V56.011H83.6479V42.2069L87.6223 51.6929L91.5963 41.716V56.011H90.6844V56.875H94.2667V56.011H93.4522V39.1248H94.2667V38.2607H91.8071L87.9314 48.008Z" fill="#1C1C1B"/>
<path d="M72.9132 48.008L68.7437 38.2607H66.5613V39.1248H67.4733V56.011H66.5447V56.875H69.4441V56.011H68.6309V42.2069L72.6053 51.6929L76.5781 41.716V56.011L75.8449 56.0272L75.747 56.0434L75.6657 56.1738V56.8746H79.2165V56.011H78.4182V39.1248H79.2323V38.2607H76.7727L72.9132 48.008Z" fill="#1C1C1B"/>
<path d="M63.1737 39.1248H63.9882V38.2607H60.4863V39.1248H61.3498V56.011H60.4863V56.875H64.0044V56.011H63.1737V39.1248Z" fill="#1C1C1B"/>
<path d="M174.714 38C169.193 38 164.697 42.287 164.697 47.5679C164.697 52.8326 169.193 57.1358 174.714 57.1358C180.236 57.1358 184.732 52.8488 184.732 47.5679C184.732 42.287 180.237 38 174.714 38ZM174.747 56.0434C170.203 56.0272 166.522 52.2132 166.522 47.5841C166.505 45.3466 167.358 43.1902 168.899 41.5695C169.645 40.7802 170.544 40.1519 171.541 39.7231C172.539 39.2942 173.613 39.074 174.698 39.0758C179.211 39.0758 182.891 42.9226 182.891 47.6493C182.891 52.3273 179.324 56.011 174.745 56.0434H174.747Z" fill="#1C1C1B"/>
<path d="M153.344 38C147.823 38 143.327 42.287 143.327 47.5679C143.327 52.8326 147.823 57.1358 153.344 57.1358C158.866 57.1358 163.362 52.8488 163.362 47.5679C163.362 42.287 158.867 38 153.344 38ZM153.296 56.0434C148.735 56.0434 145.168 52.3269 145.168 47.5675C145.152 45.3301 146.004 43.1738 147.546 41.5533C148.294 40.768 149.194 40.1434 150.191 39.7174C151.187 39.2915 152.261 39.0732 153.344 39.0758C157.858 39.0758 161.537 42.9226 161.537 47.6493C161.555 48.7442 161.355 49.8318 160.949 50.8487C160.543 51.8656 159.939 52.7916 159.172 53.5727C158.405 54.3538 157.491 54.9746 156.482 55.3987C155.473 55.8229 154.39 56.042 153.296 56.0434Z" fill="#1C1C1B"/>
<path d="M129.303 54.1692C127.845 55.3958 125.996 56.0607 124.091 56.0438C119.498 56.0438 115.916 52.3273 115.916 47.5845C115.916 42.9231 119.418 39.1738 123.881 39.06C125.326 39.0462 126.738 39.4851 127.921 40.3152V41.9444H128.768V38H127.918V38.7499C126.707 38.2621 125.413 38.0077 124.107 38C118.585 38 114.09 42.287 114.09 47.5679C114.09 52.8326 118.585 57.1196 124.107 57.1196C126.261 57.1172 128.334 56.2957 129.905 54.8215L130.052 54.6911L129.466 54.0554L129.303 54.1692Z" fill="#1C1C1B"/>
</svg>
