<svg viewBox="0 0 232 96" fill="none" xmlns="http://www.w3.org/2000/svg">
<rect width="232" height="96" fill="none"/>
<path fill-rule="evenodd" clip-rule="evenodd" d="M75.3557 38.0761C75.3557 36.9605 75.9172 35.7309 78.6505 35.7309V35H71.1998L62.9256 54.4171L54.2783 35H46.8651V35.7309C49.8604 35.7309 50.4219 36.9613 50.4219 38.0761V57.3768C50.4219 58.4924 49.8596 59.7228 46.79 59.7228V60.4529H55.7001V59.7228C52.6305 59.7228 52.069 58.4924 52.069 57.3768V39.4599L61.4662 60.4529H61.9902L71.5752 38.5757V57.3768C71.5752 58.4924 71.0129 59.7228 68.2804 59.7228V60.4529H78.6881V59.7228C75.9548 59.7228 75.394 58.4924 75.394 57.3768L75.3557 38.0761ZM91.0056 49.3797C91.0056 44.6499 89.7707 42.8436 85.6523 42.8436C83.2936 42.8436 80.9349 43.4589 79.6993 45.727C78.9133 47.1879 79.2504 48.726 80.9725 48.726C81.8343 48.726 82.6195 47.918 82.6195 47.0337C82.6195 46.0346 82.4326 45.2652 82.657 44.8041C83.0316 44.0741 84.3424 43.7279 85.0908 43.7279C87.4495 43.7279 87.8234 45.2274 87.8234 49.2649C84.6419 50.611 78.6138 52.1876 78.6138 56.8009C78.6106 57.332 78.71 57.8584 78.9064 58.3497C79.1028 58.841 79.3922 59.2873 79.7578 59.6629C80.1234 60.0385 80.558 60.3358 81.0364 60.5375C81.5147 60.7393 82.0273 60.8416 82.5444 60.8384C84.1915 60.8384 86.2882 59.4915 88.0103 57.9157C88.0478 59.3758 88.7595 60.8384 90.706 60.8384C91.754 60.8384 93.2149 59.4915 93.7756 58.8V57.8008C92.9154 58.4161 92.2412 58.6851 91.7915 58.6851C91.2676 58.6851 91.0056 58.2241 91.0056 57.4932V49.3797ZM87.8234 56.8772C87.4495 57.7237 85.2777 58.5687 84.5293 58.5687C82.7329 58.5687 81.9086 57.1077 81.9086 55.4155C81.9086 51.9555 85.4646 51.3017 87.8234 50.3026V56.8772ZM102.546 50.0335L105.43 45.8812C106.179 44.7664 107.302 43.805 108.724 43.7665V43.2283H102.808V43.7665C103.371 43.805 104.307 43.9199 104.307 44.6893C104.307 45.6507 102.323 48.0344 101.798 48.8802C101.387 48.2264 99.552 45.3816 99.552 44.8041C99.552 44.3038 99.8515 43.8042 101.162 43.7665V43.2283H93.412V43.7665C95.8074 43.8821 95.9951 45.1511 96.8937 46.5349L100.113 51.5715L96.1078 57.531C95.1341 58.9534 94.4607 59.9156 93.1124 59.9156V60.4537H98.5408V59.9156C96.6317 59.9156 96.6317 59.4923 98.0543 57.2242L100.75 52.8791L104.644 58.5695C105.243 59.4537 104.269 59.8384 102.884 59.9156V60.4537H110.409V59.9156C109.136 59.9156 108.05 58.7614 107.077 57.1856L102.546 50.0335ZM139.102 38.0761C139.102 36.9605 139.663 35.7309 142.396 35.7309V35H134.947L126.672 54.4171L118.024 35H110.61V35.7309C113.606 35.7309 114.167 36.9613 114.167 38.0761V57.3768C114.167 58.4924 113.606 59.7228 110.535 59.7228V60.4529H119.445V59.7228C116.376 59.7228 115.814 58.4924 115.814 57.3768V39.4599L125.211 60.4529H125.735L135.32 38.5757V57.3768C135.32 58.4924 134.758 59.7228 132.026 59.7228V60.4529H142.434V59.7228C139.702 59.7228 139.139 58.4924 139.139 57.3768L139.102 38.0761ZM154.752 49.3797C154.752 44.6499 153.517 42.8436 149.398 42.8436C147.039 42.8436 144.681 43.4589 143.445 45.727C142.659 47.1879 142.995 48.726 144.718 48.726C145.58 48.726 146.366 47.918 146.366 47.0337C146.366 46.0346 146.178 45.2652 146.402 44.8041C146.777 44.0741 148.087 43.7279 148.837 43.7279C151.196 43.7279 151.569 45.2274 151.569 49.2649C148.386 50.611 142.359 52.1876 142.359 56.8009C142.356 57.332 142.455 57.8585 142.652 58.3498C142.848 58.841 143.138 59.2874 143.504 59.663C143.869 60.0385 144.304 60.3358 144.782 60.5376C145.261 60.7393 145.773 60.8416 146.29 60.8384C147.937 60.8384 150.033 59.4915 151.755 57.9157C151.794 59.3758 152.504 60.8384 154.451 60.8384C155.499 60.8384 156.959 59.4915 157.522 58.8V57.8008C156.66 58.4161 155.986 58.6851 155.538 58.6851C155.014 58.6851 154.751 58.2241 154.751 57.4932V49.3797H154.752ZM151.569 56.8772C151.195 57.7237 149.023 58.5687 148.275 58.5687C146.477 58.5687 145.653 57.1077 145.653 55.4155C145.653 51.9555 149.209 51.3017 151.569 50.3026V56.8772H151.569ZM160.302 57.3768C160.302 59.0682 159.741 59.7613 157.494 59.9147V60.4529H166.292V59.9147C164.046 59.7613 163.485 59.0682 163.485 57.3768V48.2264C163.485 47.1116 165.057 45.2282 165.805 45.2282C166.741 45.2282 167.004 46.5735 168.313 46.5735C169.1 46.5735 169.737 46.1888 169.849 45.3816C170.075 43.7279 169.214 42.8436 167.753 42.8436C165.881 42.8436 164.233 44.9969 163.485 46.3044V42.8436L157.494 44.882V45.4973C159.741 44.8443 160.302 45.3045 160.302 48.9958V57.3768ZM181.465 49.3797C181.465 44.6499 180.23 42.8436 176.111 42.8436C173.753 42.8436 171.395 43.4589 170.159 45.727C169.372 47.1879 169.71 48.726 171.431 48.726C172.293 48.726 173.079 47.918 173.079 47.0337C173.079 46.0346 172.892 45.2652 173.116 44.8041C173.491 44.0741 174.801 43.7279 175.551 43.7279C177.909 43.7279 178.283 45.2274 178.283 49.2649C175.1 50.611 169.073 52.1876 169.073 56.8009C169.07 57.332 169.169 57.8585 169.366 58.3498C169.562 58.841 169.852 59.2874 170.217 59.663C170.583 60.0385 171.018 60.3358 171.496 60.5376C171.974 60.7393 172.487 60.8416 173.004 60.8384C174.65 60.8384 176.748 59.4915 178.469 57.9157C178.508 59.3758 179.218 60.8384 181.165 60.8384C182.213 60.8384 183.673 59.4915 184.235 58.8V57.8008C183.374 58.4161 182.7 58.6851 182.251 58.6851C181.727 58.6851 181.465 58.2241 181.465 57.4932V49.3797H181.465ZM178.284 56.8772C177.909 57.7237 175.737 58.5687 174.989 58.5687C173.191 58.5687 172.368 57.1077 172.368 55.4155C172.368 51.9555 175.925 51.3017 178.283 50.3026V56.8772H178.284Z" fill="#1C1C1B"/>
</svg>
