<svg viewBox="0 0 232 96" fill="none" xmlns="http://www.w3.org/2000/svg">
<rect width="232" height="96" fill="none"/>
<g clip-path="url(#clip0)">
<path d="M45.5453 59.998H43.4926C43.3213 59.998 42.8928 59.998 42.8928 59.7265C42.8928 59.5467 42.9788 59.4551 43.2354 59.3642C45.1194 58.7298 45.5447 57.6441 45.5447 56.1072V39.8948C45.5447 38.4455 45.1162 37.3591 43.2354 36.6378C42.9788 36.6378 42.8928 36.4567 42.8928 36.3664C42.8928 36.0047 43.3213 36.095 43.4926 36.095H60.441C64.2931 36.095 67.4613 39.352 67.4613 43.4293C67.4613 47.5067 64.2931 50.7596 60.441 50.7596H51.8805V56.2836C51.9665 57.7323 52.3937 58.7264 54.1898 59.3622C54.4464 59.4531 54.5318 59.544 54.5318 59.7245C54.5318 59.9959 54.1039 59.9959 53.9326 59.9959H45.5453V59.998ZM171.903 51.2142H175.926L171.903 43.9695L171.474 43.2448L167.882 51.2142H171.903ZM171.903 36.002H174.643L186.113 57.3761C186.456 57.9189 186.883 58.4617 187.396 58.7332C187.824 59.0962 188.337 59.1878 188.765 59.3676C188.937 59.4592 189.107 59.5501 189.107 59.7306C189.107 60.002 188.68 60.002 188.508 60.002H178.321C178.15 60.002 177.635 60.002 177.635 59.7306C177.635 59.5501 177.807 59.4592 177.98 59.3676C178.493 59.1878 178.834 58.9157 179.006 58.3729C179.178 57.7377 179.006 57.3774 178.578 56.5605C177.997 55.2536 177.398 53.9558 176.782 52.667H167.194L167.109 52.8475C167.023 53.2105 166.34 54.476 165.826 55.8365C165.143 57.2852 164.885 57.6468 165.057 58.3715C165.143 58.9143 165.57 59.1858 166.083 59.3669C166.256 59.4585 166.34 59.5494 166.34 59.7293C166.34 60.0007 165.91 60.0007 165.74 60.0007H161.031C160.86 60.0007 160.431 60.0007 160.431 59.7293C160.431 59.5494 160.518 59.4578 160.774 59.3669C161.203 59.1864 161.715 59.0955 162.143 58.7325C162.656 58.4611 163.085 57.9182 163.426 57.3754L164.026 56.0183L170.532 41.6156L169.589 39.8948C168.735 38.4455 167.878 37.5403 166.936 36.9968C166.508 36.7254 166.08 36.7254 165.653 36.5442C165.397 36.4533 165.31 36.3623 165.397 36.1812C165.397 36 165.567 36.0909 165.653 36H171.904L171.903 36.002ZM146.308 59.9064H146.651C162.404 59.9064 162.233 36.0896 146.651 36.0896H133.724C133.468 36.0896 133.041 35.9986 133.041 36.361C133.041 36.4512 133.211 36.6324 133.382 36.6324C135.265 37.2662 135.691 38.3532 135.778 39.7123V56.2884C135.694 57.7364 135.265 58.7311 133.382 59.3662C133.211 59.4578 133.041 59.5488 133.041 59.7293C133.041 60.0007 133.468 60.0007 133.724 60.0007H142.028V59.9091H146.308V59.9064ZM146.308 37.8117C147.465 37.8165 148.573 38.3046 149.391 39.1695C150.209 40.0345 150.671 41.2063 150.676 42.4299V53.4779C150.671 54.7014 150.209 55.8734 149.391 56.7384C148.573 57.6034 147.465 58.0914 146.308 58.096H142.025V37.8117H146.308ZM113.69 51.2142H117.713L113.69 43.9695L113.261 43.2448L109.669 51.2142H113.69ZM113.69 36.002H116.512L127.984 57.3761C128.24 57.9189 128.669 58.4617 129.183 58.7332C129.61 59.0962 130.125 59.1878 130.638 59.3676C130.809 59.4592 130.98 59.5501 130.98 59.7306C130.98 60.002 130.466 60.002 130.296 60.002H120.112C119.94 60.002 119.513 60.002 119.513 59.7306C119.513 59.5501 119.597 59.4592 119.854 59.3676C120.283 59.1878 120.71 58.9157 120.796 58.3729C120.967 57.7377 120.796 57.3774 120.454 56.5605C119.854 55.2034 119.171 53.9345 118.572 52.667H108.981L108.895 52.8475C108.81 53.2105 108.21 54.476 107.613 55.8365C107.013 57.2852 106.672 57.6468 106.843 58.3715C107.014 58.9143 107.356 59.1858 107.869 59.3669C108.04 59.4585 108.211 59.5494 108.211 59.7293C108.211 60.0007 107.783 60.0007 107.527 60.0007H102.903C102.732 60.0007 102.218 60.0007 102.218 59.7293C102.218 59.5494 102.389 59.4578 102.56 59.3669C103.073 59.1864 103.502 59.0955 104.016 58.7325C104.444 58.4611 104.958 57.9182 105.214 57.3754L105.813 56.0183L112.406 41.6156L111.465 39.8948C110.61 38.4455 109.669 37.5403 108.811 36.9968C108.298 36.7254 107.955 36.7254 107.441 36.5442C107.269 36.4533 107.098 36.3623 107.185 36.1812C107.271 36 107.441 36.0909 107.528 36H113.691L113.69 36.002ZM85.4387 51.8487C87.408 52.572 89.8052 52.7525 91.6879 52.1201L99.1367 58.9123L99.7359 59.4551C99.7686 59.4906 99.7934 59.5334 99.8084 59.5804C99.8233 59.6274 99.8282 59.6773 99.8225 59.7265C99.8225 59.998 99.394 59.998 99.2221 59.998H91.3467L85.44 54.8363L80.6449 50.7603V56.3759C80.7315 57.733 81.2447 58.7298 83.0421 59.3615C83.2134 59.4531 83.2987 59.5433 83.2987 59.7238C83.2987 59.9953 82.8702 59.9953 82.6983 59.9953H72.3404C72.0838 59.9953 71.6553 59.9953 71.6553 59.7238C71.6553 59.5433 71.8272 59.4524 71.9972 59.3615C74.0499 58.6382 74.3065 57.5511 74.3944 55.8331V40.1662C74.3084 38.5377 74.0518 37.3591 71.9972 36.6378C71.8259 36.6378 71.6553 36.4567 71.6553 36.3664C71.6553 36.0047 72.0838 36.095 72.3404 36.095H89.0341C89.941 36.0909 90.8396 36.2758 91.6789 36.6391C92.5182 37.0024 93.2816 37.537 93.9255 38.2124C94.5694 38.8878 95.0813 39.6907 95.4318 40.5754C95.7823 41.46 95.9647 42.4091 95.9685 43.3683V43.4293C95.975 45.3656 95.2544 47.2253 93.9652 48.5998C92.676 49.9743 90.9236 50.7512 89.0932 50.7596H83.6406C83.8972 51.3025 84.4963 51.4843 85.0095 51.7564C85.1814 51.7564 85.2661 51.8487 85.438 51.8487H85.4387ZM85.4387 49.0416H86.127C88.3523 49.0416 90.2363 46.5052 90.2363 43.2448C90.2324 40.0753 88.349 37.5403 86.127 37.5403H80.6443V49.0416H85.4387ZM56.7596 37.541H51.8805V49.0422H57.5313C59.8406 49.0422 61.6367 46.5059 61.6367 43.2455C61.6367 40.0767 59.8406 37.541 57.5313 37.541H56.7596Z" fill="#1C1C1B"/>
</g>
<defs>
<clipPath id="clip0">
<rect width="146.218" height="24" fill="white" transform="translate(42.8907 36)"/>
</clipPath>
</defs>
</svg>
