<?xml version="1.0" encoding="UTF-8"?>
<svg xmlns="http://www.w3.org/2000/svg" xmlns:xlink="http://www.w3.org/1999/xlink" viewBox="0 0 231 96" version="1.1">
<g id="surface1">
<path style=" stroke:none;fill-rule:nonzero;fill:rgb(11.372549%,11.372549%,10.588235%);fill-opacity:1;" d="M 137.632812 30.074219 C 139.246094 29.832031 141.078125 29.796875 142.457031 30.792969 C 143.804688 31.714844 144.675781 33.332031 144.699219 34.960938 C 144.253906 34.953125 143.8125 34.953125 143.371094 34.953125 C 143.164062 33.394531 142.070312 31.882812 140.453125 31.613281 C 139.4375 31.566406 138.289062 31.40625 137.40625 32.023438 C 136.128906 32.78125 135.695312 34.5 136.152344 35.855469 C 136.992188 37.867188 139.234375 38.582031 141.011719 39.519531 C 142.753906 40.410156 144.589844 41.589844 145.238281 43.542969 C 145.8125 45.5625 145.378906 47.996094 143.695312 49.386719 C 141.15625 51.421875 137.328125 51.605469 134.53125 50 C 132.910156 49.058594 132.421875 47.167969 132.042969 45.484375 C 132.546875 45.472656 133.050781 45.460938 133.558594 45.46875 C 133.773438 46.941406 134.566406 48.53125 136.078125 49.019531 C 137.757812 49.5625 139.75 49.679688 141.273438 48.644531 C 142.75 47.371094 142.851562 44.816406 141.394531 43.484375 C 140.023438 42.285156 138.234375 41.777344 136.65625 40.917969 C 134.984375 40.035156 133.359375 38.539062 133.207031 36.550781 C 132.535156 33.65625 134.726562 30.566406 137.632812 30.074219 Z M 50.707031 30.234375 C 55.339844 30.269531 59.972656 30.238281 64.605469 30.253906 C 64.597656 30.824219 64.597656 31.394531 64.589844 31.96875 C 62.144531 31.941406 59.699219 31.988281 57.253906 31.941406 C 57.289062 38.199219 57.25 44.457031 57.273438 50.714844 C 56.15625 50.71875 55.039062 50.699219 53.921875 50.726562 C 53.953125 44.464844 53.90625 38.203125 53.949219 31.945312 C 52.875 31.984375 51.800781 31.941406 50.730469 31.972656 C 50.539062 31.410156 50.511719 30.804688 50.707031 30.234375 Z M 92.746094 30.253906 C 93.445312 30.246094 94.144531 30.238281 94.84375 30.273438 C 92.605469 37.128906 90.523438 44.03125 88.351562 50.910156 C 87.980469 50.90625 87.609375 50.90625 87.238281 50.914062 C 85.347656 46.035156 83.425781 41.164062 81.644531 36.246094 L 81.289062 36.253906 C 79.421875 41.195312 77.230469 46.019531 75.238281 50.914062 C 74.847656 50.90625 74.457031 50.90625 74.070312 50.90625 C 71.945312 44.019531 69.699219 37.171875 67.722656 30.246094 C 68.882812 30.25 70.042969 30.25 71.207031 30.25 C 72.617188 35.15625 74.199219 40.019531 75.503906 44.953125 C 75.617188 44.9375 75.851562 44.90625 75.96875 44.890625 C 76.046875 44.335938 76.273438 43.824219 76.488281 43.3125 C 78.296875 38.964844 79.988281 34.570312 81.839844 30.242188 C 82.195312 30.246094 82.558594 30.25 82.921875 30.25 C 84.625 34.648438 86.261719 39.085938 87.929688 43.5 C 88.195312 43.921875 88.265625 44.414062 88.324219 44.902344 C 89.792969 40.019531 91.304688 35.144531 92.746094 30.253906 Z M 99.652344 30.253906 C 100.761719 30.246094 101.871094 30.242188 102.980469 30.261719 C 103.035156 36.796875 102.984375 43.339844 103.007812 49.878906 C 103.03125 50.175781 102.929688 50.453125 102.839844 50.726562 C 101.78125 50.699219 100.722656 50.71875 99.660156 50.714844 C 99.65625 43.894531 99.671875 37.074219 99.652344 30.253906 Z M 110.148438 30.261719 C 111.214844 30.242188 112.28125 30.25 113.347656 30.25 C 117.027344 35.25 120.832031 40.164062 124.441406 45.210938 C 124.371094 40.226562 124.441406 35.238281 124.40625 30.253906 C 125.023438 30.246094 125.644531 30.246094 126.265625 30.257812 C 126.25 37.136719 126.25 44.015625 126.265625 50.894531 C 125.78125 50.894531 125.300781 50.921875 124.820312 50.90625 C 120.574219 45.167969 116.203125 39.519531 112.054688 33.71875 C 112.023438 39.382812 112.0625 45.050781 112.035156 50.71875 C 111.410156 50.714844 110.785156 50.710938 110.160156 50.714844 C 110.152344 43.894531 110.175781 37.078125 110.148438 30.261719 Z M 151.21875 30.257812 C 155.15625 30.238281 159.09375 30.257812 163.03125 30.246094 C 163.027344 30.820312 163.023438 31.394531 163.027344 31.96875 C 160.207031 31.945312 157.386719 31.976562 154.570312 31.949219 C 154.585938 34.519531 154.578125 37.089844 154.574219 39.660156 C 157.210938 39.640625 159.847656 39.667969 162.488281 39.648438 C 162.46875 40.214844 162.46875 40.78125 162.476562 41.347656 C 159.84375 41.320312 157.207031 41.363281 154.570312 41.328125 C 154.585938 43.890625 154.578125 46.457031 154.574219 49.027344 C 157.632812 49 160.695312 49.027344 163.757812 49.011719 C 163.761719 49.582031 163.730469 50.152344 163.722656 50.71875 C 159.558594 50.703125 155.390625 50.714844 151.222656 50.714844 C 151.234375 43.894531 151.246094 37.078125 151.21875 30.257812 Z M 166.601562 30.269531 C 171.214844 30.226562 175.828125 30.257812 180.441406 30.253906 C 180.433594 30.832031 180.472656 31.417969 180.296875 31.976562 C 179.296875 31.945312 178.296875 31.96875 177.292969 31.960938 C 177.308594 38.210938 177.308594 44.464844 177.296875 50.71875 C 176.226562 50.710938 175.15625 50.710938 174.089844 50.71875 C 174.085938 44.464844 174.070312 38.210938 174.097656 31.957031 C 171.679688 31.957031 169.261719 31.972656 166.839844 31.949219 C 166.359375 31.558594 166.710938 30.8125 166.601562 30.269531 Z M 96.492188 60.816406 C 97.09375 60.824219 97.695312 60.832031 98.296875 60.835938 C 98.472656 61.878906 98.71875 63.207031 99.410156 63.949219 C 99.578125 62.890625 100.070312 61.910156 100.269531 60.855469 C 100.878906 60.820312 101.492188 60.816406 102.105469 60.832031 C 102.304688 62.515625 102.234375 64.21875 102.472656 65.90625 C 102.046875 66.121094 101.578125 66.035156 101.140625 65.90625 C 101 64.738281 100.960938 63.566406 100.898438 62.390625 C 100.632812 63.605469 100.160156 64.753906 99.828125 65.953125 C 99.394531 65.949219 98.964844 65.949219 98.53125 65.949219 C 98.1875 64.675781 97.671875 63.460938 97.441406 62.15625 C 97.417969 63.425781 97.335938 64.683594 97.238281 65.945312 C 96.84375 65.941406 96.449219 65.945312 96.054688 65.945312 C 96.136719 64.226562 96.210938 62.503906 96.492188 60.816406 Z M 105.269531 60.828125 C 105.707031 60.828125 106.148438 60.828125 106.589844 60.824219 C 106.578125 62.527344 106.570312 64.222656 106.59375 65.925781 C 106.160156 66.113281 105.699219 66.050781 105.261719 65.914062 C 105.292969 64.21875 105.277344 62.523438 105.269531 60.828125 Z M 109.410156 60.839844 C 109.851562 60.832031 110.296875 60.824219 110.738281 60.816406 C 110.792969 62.144531 110.605469 63.5 110.832031 64.804688 C 111.414062 64.78125 111.996094 64.78125 112.582031 64.789062 C 112.597656 65.183594 112.621094 65.578125 112.640625 65.976562 C 111.570312 66.105469 110.457031 66.140625 109.398438 65.898438 C 109.433594 64.214844 109.414062 62.527344 109.410156 60.839844 Z M 114.746094 65.90625 C 115.449219 64.171875 115.945312 62.335938 116.765625 60.660156 C 117.195312 60.667969 117.628906 60.671875 118.0625 60.652344 C 118.804688 62.34375 119.480469 64.101562 119.953125 65.894531 C 119.519531 65.914062 119.089844 65.949219 118.660156 65.964844 C 118.523438 65.585938 118.453125 65.191406 118.351562 64.804688 C 117.695312 64.808594 117.035156 64.8125 116.378906 64.792969 C 116.273438 65.152344 116.179688 65.507812 116.121094 65.875 C 115.679688 66.066406 115.195312 66.09375 114.746094 65.90625 M 117.371094 61.800781 C 117.15625 62.476562 117.078125 63.222656 116.65625 63.816406 C 117.074219 63.8125 117.496094 63.8125 117.914062 63.828125 C 117.875 63.113281 117.433594 62.507812 117.371094 61.800781 Z M 122.335938 60.835938 C 122.765625 60.828125 123.199219 60.828125 123.632812 60.820312 C 124.273438 61.828125 125.101562 62.742188 125.515625 63.878906 C 125.554688 62.863281 125.535156 61.851562 125.53125 60.839844 C 125.96875 60.832031 126.40625 60.828125 126.84375 60.828125 C 126.828125 62.519531 126.816406 64.214844 126.847656 65.90625 C 126.558594 65.957031 126.269531 66.015625 125.984375 66.082031 C 125.882812 66.027344 125.675781 65.917969 125.574219 65.867188 C 124.976562 64.765625 124.082031 63.835938 123.621094 62.664062 C 123.632812 63.742188 123.605469 64.820312 123.636719 65.894531 C 123.21875 66.125 122.757812 66.019531 122.324219 65.90625 C 122.359375 64.214844 122.34375 62.523438 122.335938 60.835938 Z M 131.125 60.792969 C 132.386719 60.261719 133.882812 61.199219 134.296875 62.433594 C 134.375 63.382812 134.53125 64.542969 133.71875 65.242188 C 132.953125 66.265625 131.214844 66.390625 130.3125 65.488281 C 128.78125 64.265625 129.199219 61.40625 131.125 60.792969 M 131.421875 64.960938 C 131.746094 64.960938 132.070312 64.960938 132.398438 64.964844 C 133.246094 64.152344 133.363281 62.46875 132.265625 61.824219 C 130.523438 61.449219 130.285156 64.144531 131.421875 64.960938 Z M 131.421875 64.960938 "/>
</g>
</svg>
