<svg viewBox="0 0 231 96" fill="none" xmlns="http://www.w3.org/2000/svg">
<rect width="231" height="96" fill="none"/>
<g clip-path="url(#clip0)">
<path fill-rule="evenodd" clip-rule="evenodd" d="M50.5387 37.2156L50.5882 37.6959H48.2012L52.7454 54.3248C53.9222 50.3286 56.1452 43.4327 57.2408 39.3706C57.4041 38.7569 57.1263 38.2099 56.7015 37.9784C56.3587 37.7963 55.5734 37.8622 55.1161 37.8458L55.0503 37.2156H60.5431V37.6959C59.8073 37.7288 58.4997 37.8615 58.2382 38.6078C55.9169 44.9905 53.3837 53.6122 51.7163 59.0657H51.4548L45.1945 37.6959H43.1835L43.1348 37.2156H50.5387ZM67.9958 51.8221L62.6841 51.7718C62.144 53.4136 61.6542 55.4031 61.2944 57.0111C61.1637 57.6413 61.2457 57.8571 61.4414 58.1396C61.6372 58.4221 62.8473 58.2393 63.5831 58.2879L63.5344 58.7525H58.4834L58.4347 58.2879C58.909 58.2393 60.1021 58.4214 60.2653 57.9403C61.9978 53.0173 64.613 42.6212 66.3462 36.9017H66.6402L72.6885 58.2879H74.6004V58.7525H67.4248V58.2879H69.8435L67.9958 51.8221ZM65.3805 42.0734L62.8148 51.4069H67.9145L65.3805 42.0734ZM78.2447 37.8458H75.744V37.2156H83.3282V37.8458H80.7942V58.3382C82.0531 58.3382 83.3607 58.2707 84.6188 58.3044C89.4082 58.4363 90.3398 56.4311 90.3236 51.8715L90.6834 51.8229L90.6346 58.7525H75.7115V58.339H78.2447V37.8458ZM94.5737 37.9117H92.3833V37.2815H105.77L106.13 42.6699L105.786 42.6204C105.574 40.8633 105.492 40.3485 104.756 39.3541C104.02 38.359 102.68 38.0278 101.226 38.0114L97.2044 37.9619L97.1557 47.7765C97.8582 47.76 98.577 47.76 99.2804 47.7098C99.9837 47.6768 101.046 47.2962 101.422 46.7484C101.798 46.2006 101.863 45.2228 101.929 43.847H102.305L102.354 51.8542H101.831C101.831 51.8221 101.814 51.7718 101.814 51.7059C101.798 50.7445 101.929 49.9323 101.357 49.0698C101.014 48.5228 99.9025 48.1257 98.9214 48.1579L97.1565 48.2081L97.2052 58.3703C99.6077 58.3539 103.793 58.7855 105.606 56.9279C106.375 56.1494 106.571 54.4739 106.571 52.7175L107.062 52.7513L107.029 58.7518H92.4328L92.384 58.3209H94.5745V37.9117H94.5737ZM123.636 37.9619C123.327 37.6637 122.051 37.7798 121.446 37.7798L121.494 37.2164L126.726 37.2493V37.6967C124.976 37.7461 124.389 37.5146 124.339 39.2882C124.175 44.2614 124.307 55.1378 124.291 59.0664L123.833 59.1002L111.786 38.6251C111.754 41.6591 111.672 52.3698 111.672 56.6305C111.672 58.769 112.8 58.2385 114.32 58.2047V58.7518H108.778V58.3044C111.295 58.2385 111.279 58.3868 111.311 55.2375C111.36 49.6506 111.393 43.7144 111.41 37.7131C110.168 37.7296 109.529 37.7461 108.909 37.7461V37.2156L114.27 37.2485L123.865 53.4466C123.849 51.8221 123.913 42.4211 123.881 39.0057C123.866 38.4092 123.734 38.0278 123.636 37.9619ZM167.475 37.9784C167.165 37.6802 165.889 37.7963 165.285 37.7798L165.333 37.2328L170.565 37.2658V37.7131C168.815 37.7461 168.244 37.5138 168.177 39.2882C168.014 44.2779 168.145 55.1378 168.129 59.0664L167.671 59.1002L155.626 38.6251C155.592 41.6755 155.511 52.3698 155.511 56.6305C155.511 58.769 156.638 58.2385 158.159 58.2047V58.7518H152.617V58.3044C155.135 58.2385 155.135 58.3868 155.151 55.2539C155.199 49.6498 155.233 43.7309 155.25 37.7288C154.024 37.7453 153.369 37.7453 152.749 37.7453V37.2313L158.111 37.2642L167.705 53.4458C167.689 51.8213 167.753 42.4203 167.721 39.0214C167.704 38.4257 167.573 38.0443 167.475 37.9784ZM134.147 37.7955C131.875 37.7461 129.832 37.9282 129.046 38.9068C128.245 39.8854 128.327 41.2612 128.132 43.4656L127.772 43.5151L127.803 37.2156H143.169L143.25 43.5653H142.841C142.63 41.0783 142.678 39.6861 141.845 38.8731C141.011 38.0608 138.625 37.7453 136.777 37.7453L136.729 58.2526L139.246 58.3028V58.7674H131.53V58.3028H134.097L134.147 37.7955ZM146.88 37.8458H144.673V37.2156H151.702V37.8458H149.446V58.2534H151.604V58.7682H144.526V58.2534H146.88V37.8458ZM179.882 37.2815C179.669 37.2815 179.441 37.298 179.211 37.3482C178.973 37.3989 178.738 37.4652 178.508 37.5468C177.594 37.9109 176.743 38.8401 175.976 40.3485C175.207 41.8741 174.831 44.394 174.831 47.9421C174.831 51.4571 175.206 53.9598 175.959 55.4847C176.726 56.993 177.56 57.9387 178.459 58.3201C178.704 58.4347 178.949 58.5022 179.179 58.5516C179.407 58.6019 179.637 58.6175 179.882 58.6175C180.11 58.6175 180.34 58.6019 180.584 58.5516C180.829 58.503 181.074 58.4355 181.32 58.3201C182.219 57.9214 183.052 56.9609 183.804 55.4509C184.572 53.9261 184.949 51.4226 184.949 47.9421C184.949 44.7252 184.622 42.3873 183.985 40.8955C183.347 39.4036 182.645 38.392 181.875 37.8779C181.559 37.6531 181.204 37.4902 180.829 37.3976C180.518 37.3231 180.201 37.2842 179.882 37.2815ZM171.954 47.9915C171.954 44.8422 172.673 42.3049 174.112 40.3987C175.55 38.476 177.119 37.3482 178.851 36.9998C179.03 36.9668 179.211 36.9503 179.39 36.9338C179.57 36.9009 179.735 36.9009 179.898 36.9009C181.956 36.9009 183.804 37.929 185.438 40.0181C187.073 42.0907 187.891 44.7597 187.891 47.9923C187.891 51.0428 187.236 53.4795 185.929 55.3207C184.622 57.1618 183.183 58.3217 181.629 58.802C181.352 58.9178 181.061 58.9962 180.764 59.0351C180.477 59.0818 180.188 59.1038 179.898 59.101C179.445 59.102 178.994 59.0407 178.558 58.9189C178.066 58.8028 177.577 58.605 177.069 58.3546C175.795 57.6248 174.618 56.4154 173.555 54.7407C172.477 53.0487 171.938 50.8105 171.954 47.9915Z" fill="#1C1C1B"/>
</g>
<defs>
<clipPath id="clip0">
<rect width="149.143" height="48" fill="white" transform="translate(40.9412 24)"/>
</clipPath>
</defs>
</svg>
