<svg x="0px" y="0px" viewBox="0 0 24 24" fill="none" xmlns="http://www.w3.org/2000/svg">
<path fill-rule="evenodd" clip-rule="evenodd" d="M8.87073 4.49988C9.63969 3.64104 10.757 3.10059 12.0005 3.10059C13.244 3.10059 14.3613 3.64104 15.1302 4.49988H8.87073ZM7.12097 5.49988C6.91393 6.06085 6.80085 6.66732 6.80085 7.30021H7.80085C7.80085 6.65592 7.94594 6.04551 8.20523 5.49988H15.7957C16.055 6.04551 16.2001 6.65592 16.2001 7.30021H17.2001C17.2001 6.66732 17.087 6.06085 16.88 5.49988H19.2348L20.4578 20.4999H3.52686L4.30576 5.49988H7.12097ZM7.61859 4.49988C8.54264 3.05696 10.1599 2.10059 12.0005 2.10059C13.8411 2.10059 15.4583 3.05696 16.3824 4.49988H19.6957H20.1566L20.1941 4.95925L21.4986 20.9592L21.5426 21.4999H21.0002H3.00022H2.47359L2.5009 20.9739L3.33172 4.97395L3.35634 4.49988H3.83105H7.61859Z" fill="white"/>
</svg>
