<svg x="0px" y="0px" viewBox="0 0 24 24" fill="none" xmlns="http://www.w3.org/2000/svg">
<path fill-rule="evenodd" clip-rule="evenodd" d="M17 11.5C17 15.0899 14.0899 18 10.5 18C6.91015 18 4 15.0899 4 11.5C4 7.91015 6.91015 5 10.5 5C14.0899 5 17 7.91015 17 11.5ZM16.4272 16.0961C15.0551 17.863 12.9103 19 10.5 19C6.35786 19 3 15.6421 3 11.5C3 7.35786 6.35786 4 10.5 4C14.6421 4 18 7.35786 18 11.5C18 12.8708 17.6322 14.1557 16.99 15.2615L20.3254 18.1204L19.6746 18.8796L16.4272 16.0961Z" fill="white"/>
</svg>
