<svg x="0px" y="0px" viewBox="0 0 118 39" fill="none" xmlns="http://www.w3.org/2000/svg">
<path d="M38.1039 22.9921H38.0482L33.4405 12.2559H30.6251L36.7255 25.719C36.2003 27.6402 35.7427 28.8102 34.4884 28.8102C33.8194 28.8102 33.2896 28.6835 32.983 28.5822V30.6346C33.3733 30.7359 33.68 30.8372 34.0423 30.8372C36.8857 30.8372 37.4682 30.0463 38.4487 27.6931C40.2626 23.3398 42.3608 16.6393 44.0891 12.2559H41.5966L38.1039 22.9921Z" fill="white"/>
<path d="M62.8259 11.8818C60.5976 11.8818 59.6348 12.804 58.3967 14.0253C58.0115 13.3274 57.1313 11.8818 54.5454 11.8818C51.9318 11.8818 50.6661 13.4272 50.1435 14.125H50.0885V12.2557H47.8052V25.4406H50.2535V18.2126C50.2535 14.6235 52.6744 13.8757 54.0501 13.8757C55.8658 13.8757 56.361 15.2217 56.361 16.3184V25.4406H58.8093V17.3901C58.8093 15.6454 60.13 13.8757 62.1933 13.8757C64.284 13.8757 64.9168 15.122 64.9168 16.9165V25.4406H67.3651V16.3184C67.3651 12.6296 64.394 11.8818 62.8259 11.8818Z" fill="white"/>
<path d="M80.1351 11.9377C78.3471 11.9377 76.8941 12.5418 75.8023 13.9546V7.34717H73.3155V25.486H75.6362V23.9895H75.6915C76.2216 24.7197 77.2844 26.0302 79.8002 26.0302C84.8055 26.0302 86.2296 21.7442 86.2296 18.5689C86.2296 14.8109 84.0486 11.9377 80.1351 11.9377ZM79.7756 24.3935C76.8991 24.3935 75.5656 22.016 75.5656 18.9426C75.5656 17.097 75.7725 13.6504 79.8622 13.6504C83.6556 13.6504 83.924 17.2836 83.924 19.6107C83.924 23.3775 81.4333 24.3935 79.7756 24.3935Z" fill="white"/>
<path d="M97.2589 11.7607C92.7772 11.7607 90.764 15.4122 90.764 18.8878C90.764 22.3633 92.7772 26.0413 97.2589 26.0413C101.738 26.0413 103.754 22.3633 103.754 18.8878C103.754 15.4122 101.738 11.7607 97.2589 11.7607ZM97.259 24.5795C93.7029 24.5795 92.9446 20.9192 92.9446 18.9491C92.9446 16.979 93.7029 13.3475 97.259 13.3475C100.815 13.3475 101.571 16.979 101.571 18.9491C101.571 20.9192 100.815 24.5795 97.259 24.5795Z" fill="white"/>
<path d="M111.457 7.43799H109.078V26.1075H111.457V7.43799Z" fill="white"/>
<path d="M26.5246 19.5304H26.9677V15.9988H24.683C24.683 15.1162 24.7834 13.6187 21.7614 13.6187C21.0393 13.6187 18.8917 13.8593 18.8917 15.6243C18.8917 16.801 19.233 17.3386 22.3029 17.8172C24.5977 18.175 25.8099 18.815 26.5246 19.5304Z" fill="white"/>
<path d="M26.4828 24.6095C25.4962 25.8239 23.8245 26.151 21.8484 26.151C16.9244 26.151 16.2443 23.2725 16.1374 21.561H18.4372C18.4372 22.604 18.452 24.4492 21.8216 24.4492C23.5065 24.4492 25.0257 23.8338 25.0574 22.2028C25.0869 20.6791 23.9571 20.2959 20.7941 19.621C17.7576 18.9731 16.5919 18.2718 16.5919 16.0789C16.5919 13.0035 19.1919 11.7608 21.9731 11.7608C25.2974 11.7608 26.1812 13.1778 26.6733 14.4838H26.9677V7.27393H7.27397V31.1741H26.9677V24.6095H26.4828V24.6095Z" fill="white"/>
</svg>
