<svg width="32" height="20" fill="none" xmlns="http://www.w3.org/2000/svg"><g opacity=".5"><path d="M20.11 2.093h-8.56v15.385h8.56V2.093z" fill="#756D6B"/><path d="M12.093 9.788a9.768 9.768 0 013.737-7.695 9.784 9.784 0 100 15.386 9.768 9.768 0 01-3.737-7.691z" fill="#5C5654"/><path d="M31.662 9.787a9.785 9.785 0 01-15.832 7.691 9.786 9.786 0 000-15.385 9.784 9.784 0 0115.832 7.691v.003z" fill="#7D7876"/><path d="M30.727 15.848v-.316h.127v-.065h-.323v.065h.139v.316h.057zm.627 0v-.381h-.097l-.115.272-.114-.272h-.087v.38h.071v-.285l.106.248h.073l.106-.248v.288l.057-.002z" fill="#818286"/></g></svg>