<svg width="19" height="20" fill="none" xmlns="http://www.w3.org/2000/svg"><g opacity=".7" fill="#fff"><path d="M10.272 5.54a4.633 4.633 0 00-3.056 1.195 4.645 4.645 0 00-1.501 2.922 4.111 4.111 0 001.128 3.044 4.22 4.22 0 003.074 1.384h.372a4.573 4.573 0 002.826-1.45 4.584 4.584 0 001.202-2.944 4.104 4.104 0 00-2.481-3.82 4.091 4.091 0 00-1.564-.331zm0 8.07H9.94a3.758 3.758 0 01-2.736-1.236 3.638 3.638 0 01-1.01-2.694 4.216 4.216 0 014.1-3.688 3.63 3.63 0 012.556 1.09 3.64 3.64 0 011.038 2.58 4.093 4.093 0 01-3.638 3.948h.022z"/><path d="M10.12 3.924c-3.137 0-6.076 2.654-6.29 5.682a5.655 5.655 0 001.562 4.19 5.815 5.815 0 004.237 1.91h.513a6.304 6.304 0 003.899-2 6.318 6.318 0 001.657-4.06 5.654 5.654 0 00-3.422-5.267 5.635 5.635 0 00-2.157-.455zm0 11.296a5.324 5.324 0 01-4.372-1.74 5.191 5.191 0 01-1.439-3.84c.203-2.824 2.928-5.253 5.833-5.253a5.175 5.175 0 013.621 1.568c.953.981 1.48 2.3 1.467 3.668a5.844 5.844 0 01-1.531 3.747 5.83 5.83 0 01-3.597 1.85h.017z"/><path d="M9.68 2.439c-3.898 0-7.333 3.281-7.598 7.342a7.679 7.679 0 001.996 5.649 6.709 6.709 0 004.964 2.202c.22 0 .44 0 .66-.034a8.125 8.125 0 005.03-2.58 8.144 8.144 0 002.134-5.242 7.28 7.28 0 00-2.078-5.157A7.26 7.26 0 009.68 2.44zm0 14.685a6.259 6.259 0 01-5.24-2.028 7.197 7.197 0 01-1.873-5.303c.253-3.801 3.452-6.89 7.113-6.89 1.801.02 3.52.755 4.78 2.044a6.816 6.816 0 011.944 4.829 7.664 7.664 0 01-2.016 4.922 7.645 7.645 0 01-4.73 2.42l.022.006zM4.338 2.97l-.271-.379a9.738 9.738 0 00-1.004.836l.316.34c.301-.288.621-.554.959-.797zM6.526 1.812l-.157-.435c-.411.148-.81.326-1.196.53l.214.413a8.822 8.822 0 011.14-.508zM8.952 1.32V.858c-.436.023-.87.078-1.297.164l.09.452c.398-.08.802-.13 1.207-.152zM.096 11.787c.064.435.158.866.282 1.288l.44-.13a8.924 8.924 0 01-.253-1.226l-.469.068zM.48 9.894c0-.22.039-.446.073-.66L.096 9.16A9.67 9.67 0 000 10.46h.463c0-.182.005-.38.016-.566zM15.585 4.133l.344-.31a8.976 8.976 0 00-.936-.916l-.293.356c.316.268.612.559.885.87zM11.524 1.118a8.663 8.663 0 00-1.286-.226l-.045.463c.41.04.818.112 1.218.215l.113-.452zM18.113 8.527a9.21 9.21 0 00-.282-1.288l-.44.136c.119.4.21.807.27 1.22l.452-.068zM17.363 6.014a9.132 9.132 0 00-.638-1.13l-.383.254c.218.344.412.703.58 1.074l.44-.198zM.818 6.636a9.87 9.87 0 00-.446 1.236l.44.13c.115-.4.256-.793.423-1.174l-.417-.192zM13.927 2.14a8.744 8.744 0 00-1.162-.605l-.18.452c.39.16.766.348 1.128.565l.214-.412zM2.532 4.687l-.355-.294c-.273.341-.524.7-.75 1.073l.395.243c.214-.356.451-.697.71-1.022zM13.77 17.31l.264.379c.354-.256.69-.533 1.01-.83l-.31-.34a9.992 9.992 0 01-.965.791zM15.597 15.604l.35.3c.28-.336.538-.688.773-1.057l-.361-.248a9.81 9.81 0 01-.762 1.005zM17.746 9.843c0 .416-.03.831-.09 1.243l.456.068c.062-.417.094-.838.096-1.26l-.462-.05zM16.923 13.503l.418.198c.184-.397.34-.807.468-1.226l-.44-.135c-.122.397-.27.786-.446 1.163zM11.58 18.491l.164.435c.41-.161.807-.35 1.19-.565l-.22-.406a9.36 9.36 0 01-1.133.536zM4.197 18.242c.37.236.759.442 1.162.616l.18-.424a7.788 7.788 0 01-1.094-.565l-.248.373zM.829 14.306c.18.39.388.767.62 1.13l.39-.25a8.98 8.98 0 01-.565-1.1l-.445.22zM2.578 16.22l-.35.3c.283.334.59.647.92.937l.304-.35a8.52 8.52 0 01-.874-.887zM9.353 19.016h-.186l.028.463h.197c.37-.035.738-.093 1.1-.175l-.101-.452a8.214 8.214 0 01-1.038.164zM6.593 19.276a8.11 8.11 0 001.303.22l.04-.463c-.41-.033-.818-.1-1.218-.198l-.125.44z"/><path d="M10.441 12.42c1.52 0 2.753-1.22 2.753-2.723S11.96 6.975 10.44 6.975 7.688 8.194 7.688 9.697c0 1.504 1.233 2.723 2.753 2.723z"/></g></svg>