<svg width='146px' height='48px' viewBox="0 0 146 48" fill="none" xmlns="http://www.w3.org/2000/svg">
<path d="M47.1458 28.4476H47.0768L41.3758 15.1638H37.8923L45.4404 31.8216C44.7905 34.1987 44.2243 35.6464 42.6724 35.6464C41.8447 35.6464 41.1892 35.4895 40.8098 35.3642V37.9036C41.2927 38.0289 41.6721 38.1543 42.1205 38.1543C45.6386 38.1543 46.3593 37.1757 47.5725 34.2641C49.8168 28.8778 52.4128 20.5874 54.5512 15.1638H51.4673L47.1458 28.4476Z" fill="white"/>
<path d="M77.7343 14.7012C74.9773 14.7012 73.786 15.8421 72.2541 17.3533C71.7774 16.4897 70.6884 14.7012 67.4889 14.7012C64.2552 14.7012 62.6892 16.6132 62.0425 17.4766H61.9745V15.1637H59.1494V31.4773H62.1786V22.5342C62.1786 18.0934 65.174 17.1682 66.8761 17.1682C69.1226 17.1682 69.7354 18.8336 69.7354 20.1905V31.4773H72.7646V21.5165C72.7646 19.3578 74.3987 17.1682 76.9516 17.1682C79.5383 17.1682 80.3214 18.7102 80.3214 20.9306V31.4773H83.3506V20.1905C83.3506 15.6264 79.6744 14.7012 77.7343 14.7012Z" fill="white"/>
<path d="M99.1505 14.7701C96.9383 14.7701 95.1404 15.5176 93.7896 17.2656V9.09033H90.7126V31.5333H93.584V29.6816H93.6525C94.3084 30.5851 95.6233 32.2066 98.7361 32.2066C104.929 32.2066 106.691 26.9036 106.691 22.9748C106.691 18.3251 103.993 14.7701 99.1505 14.7701ZM98.7057 30.1816C95.1466 30.1816 93.4967 27.2399 93.4967 23.4372C93.4967 21.1537 93.7527 16.8893 98.8129 16.8893C103.506 16.8893 103.838 21.3845 103.838 24.2639C103.838 28.9244 100.757 30.1816 98.7057 30.1816Z" fill="white"/>
<path d="M120.337 14.5515C114.792 14.5515 112.301 19.0695 112.301 23.3697C112.301 27.67 114.792 32.2207 120.337 32.2207C125.879 32.2207 128.373 27.67 128.373 23.3697C128.373 19.0695 125.879 14.5515 120.337 14.5515ZM120.337 30.412C115.937 30.412 114.999 25.8832 114.999 23.4456C114.999 21.008 115.937 16.5148 120.337 16.5148C124.737 16.5148 125.672 21.008 125.672 23.4456C125.672 25.8832 124.737 30.412 120.337 30.412Z" fill="white"/>
<path d="M137.906 9.20264H134.961V32.3022H137.906V9.20264Z" fill="white"/>
<path d="M32.8184 24.1646H33.3666V19.795H30.5399C30.5399 18.703 30.664 16.8501 26.9249 16.8501C26.0315 16.8501 23.3743 17.1479 23.3743 19.3316C23.3743 20.7875 23.7965 21.4527 27.595 22.0449C30.4343 22.4876 31.9341 23.2794 32.8184 24.1646Z" fill="white"/>
<path d="M32.7666 30.4491C31.5459 31.9516 29.4775 32.3564 27.0326 32.3564C20.9402 32.3564 20.0986 28.7949 19.9663 26.6773H22.8119C22.8119 27.9678 22.8302 30.2508 26.9993 30.2508C29.0841 30.2508 30.9638 29.4894 31.0029 27.4713C31.0395 25.5861 29.6416 25.112 25.728 24.2769C21.9711 23.4752 20.5287 22.6075 20.5287 19.8943C20.5287 16.0891 23.7456 14.5516 27.1868 14.5516C31.2999 14.5516 32.3935 16.3048 33.0023 17.9207H33.3666V9H8.99976V38.5714H33.3666V30.4491H32.7666V30.4491Z" fill="white"/>
</svg>
