<svg width="49" height="17" fill="none" xmlns="http://www.w3.org/2000/svg"><g opacity=".5" fill="#7D7876"><path d="M20.98 16.097h-3.922L19.51.847h3.921l-2.453 15.25zM35.197 1.22C34.422.91 33.196.57 31.678.57c-3.873 0-6.6 2.077-6.617 5.046-.032 2.19 1.953 3.407 3.437 4.137 1.517.746 2.033 1.233 2.033 1.898-.015 1.022-1.226 1.493-2.355 1.493-1.566 0-2.405-.243-3.68-.811l-.516-.244-.549 3.423c.92.422 2.615.796 4.374.812 4.115 0 6.794-2.044 6.826-5.208.016-1.736-1.033-3.066-3.292-4.153-1.372-.698-2.212-1.168-2.212-1.882.016-.65.71-1.314 2.259-1.314a6.632 6.632 0 012.921.584l.355.162.534-3.293zM40.41 10.694l1.565-4.267c-.016.033.322-.892.516-1.46l.274 1.314s.743 3.65.904 4.413h-3.26zM45.25.847h-3.033c-.936 0-1.647.275-2.05 1.265L34.34 16.097h4.115l.823-2.288h5.036c.112.535.468 2.287.468 2.287h3.631L45.25.846zM13.782.847L9.94 11.246l-.42-2.11C8.811 6.704 6.584 4.06 4.1 2.745l3.518 13.337h4.147L17.93.847h-4.147z"/><path d="M6.374.847H.064L0 1.155C4.922 2.42 8.182 5.47 9.521 9.137L8.15 2.13C7.924 1.155 7.23.879 6.374.847z"/></g></svg>