<svg width="23" height="18" fill="none" xmlns="http://www.w3.org/2000/svg"><path opacity=".5" d="M22.482 14.61a2.843 2.843 0 01-2.408 2.266 60.395 60.395 0 01-8.603.624c-3.5 0-6.654-.34-8.603-.624a2.843 2.843 0 01-2.409-2.267C.23 13.307 0 11.38 0 9c0-2.38.228-4.308.46-5.61a2.843 2.843 0 012.408-2.266A60.389 60.389 0 0111.47.5c3.555 0 6.654.34 8.603.624a2.843 2.843 0 012.408 2.267C22.713 4.692 23 6.62 23 9c-.058 2.38-.287 4.307-.518 5.61zM9.177 12.966L16.059 9 9.177 5.033v7.934z" fill="#E7E7E7"/></svg>